<?xml version="1.0" encoding="utf-8"?>
<!-- Generator: Adobe Illustrator 27.9.0, SVG Export Plug-In . SVG Version: 6.00 Build 0)  -->
<svg version="1.1" id="Layer_1" xmlns="http://www.w3.org/2000/svg" xmlns:xlink="http://www.w3.org/1999/xlink" x="0px" y="0px"
	 viewBox="0 0 1500 1500" style="enable-background:new 0 0 1500 1500;" xml:space="preserve">
<style type="text/css">
	.st0{fill:#AFC6D3;}
	.st1{fill:#1E3464;}
</style>
<circle class="st0" cx="750" cy="750" r="733.3"/>
<g>
	<path class="st1" d="M756.7,1182.5c-4.5,0-9,0-13.5,0c-12.4-6.6-24.8-13.2-37.2-19.9c-66.9-36.4-130.5-77.6-186-130.3
		c-94.1-89.3-143.8-198-143.6-328.6c0.1-81,0-162,0-243c0-20.6,7.1-26.5,27-22.5c46.8,9.5,93.3,8.2,139.6-3.3
		c73.7-18.3,135.7-57.2,190.7-108.5c12.7-11.9,20-11.9,32.5-0.1c25.6,24.2,53.4,45.7,83.7,63.8c58.9,35.2,122.1,55.5,191.3,54.2
		c20.9-0.4,41.4-3.6,61.9-7.2c11.3-2,19.3,4.5,20.3,15.8c0.3,3.4,0.2,6.7,0.2,10.1c0,75.7-0.1,151.3,0,227c0,22.8-0.7,45.5-3.2,68.2
		c-8.3,76.8-35.7,145.9-81.7,207.8c-42.5,57.1-95.8,102.5-154.4,142.2C843.4,1135.9,800.3,1159.6,756.7,1182.5z M513.8,758
		c0.7,19.1,2.3,36.4,6.8,53.3C550.5,924.7,659.5,998,771.7,986.5c69.5-7.1,125.3-38.9,168-93.8c13-16.7,23.4-35.1,30.9-54.9
		c3.2-8.6,0.3-16.1-7-19c-7.4-3-14.5,0.2-18.5,8.5c-1.1,2.3-2,4.6-3,7c-37.5,85.7-129.3,137.1-221.5,124
		c-87.5-12.4-157.6-78.4-174.8-165c-1.9-9.4-4-18.9-2.8-29.6c4.6,2.9,5.9,6.7,8,9.9c5.6,8.6,13.5,11.3,20.6,7
		c6.7-4.1,8.3-12.4,3.4-20.9c-9.6-16.5-19.3-33-29.5-49.2c-9.9-15.6-27.9-15.5-37.8,0.1c-9.8,15.7-19.2,31.7-28.6,47.7
		c-5.5,9.4-4.4,17.1,2.6,21.6c7.3,4.7,15,1.9,21.1-7.3C505.7,768,507.4,762.4,513.8,758z M984.8,731c-1.8-11.3-2.9-21.5-5-31.6
		c-26.7-129.7-153.8-210.8-282.8-180c-72.7,17.4-125.8,60.2-160,126.5c-2.2,4.2-4.9,8.4-3.5,13.5c1.6,5.9,5.2,10.1,11.4,11
		c8.4,1.2,12.7-3.8,16.2-10.6c42.7-82.9,121.3-126.2,213.2-117.6c89.6,8.3,165.5,79.8,179.4,168.9c0.3,1.7,1.5,3.8-1.2,5.2
		c-2.8-1.3-3.6-4.2-5.3-6.3c-5.1-6.3-12.4-8.1-18.6-4.5c-6.1,3.6-8.8,11.4-4.7,18.5c10.4,18.3,21,36.6,32.6,54.2
		c8,12.1,25,12.7,33.1,0.8c12.3-18.1,23.4-37.1,34-56.3c4.8-8.7-1.1-18.7-10.3-19.8c-6.7-0.8-11,3.1-14.5,8.2
		C994.4,717.3,991.9,725,984.8,731z M675,853.2c19.1,0,38.2,0.1,57.4,0c10.1-0.1,16.2-5.1,16.4-13.1c0.2-8.4-5.8-13.6-16.6-13.8
		c-13.2-0.2-26.4-0.1-39.6-0.1c-16.6,0-33.2,0.1-49.8-0.2c-7.9-0.1-8.7-1.9-4.3-8.3c4.2-6,9.2-11.3,14.5-16.4
		c17.1-16.1,37.3-28,56-41.8c11.8-8.8,22.5-18.6,30.1-31.4c20.4-34.5,5.3-76.9-32.1-91c-12.5-4.7-25.2-5.2-38.2-4.3
		c-36,2.4-65.7,33.1-66.8,68.6c-0.3,9.9,4.5,16,12.9,16.5c8.8,0.4,13.7-4.4,14.7-14.6c3.1-30.5,29.8-49.4,59.7-42.2
		c31.8,7.7,41,37.5,18.8,61.7c-8.4,9.2-17.9,17-28.4,23.7c-20.8,13.4-40.9,27.9-57.5,46.6c-9.9,11.1-17.1,23.6-19.8,38.5
		c-2.6,14.5,2.9,21.4,17.5,21.5C638.5,853.3,656.7,853.2,675,853.2z M882.9,703c0,0-0.1,0-0.1,0c0-18.8,0-37.7,0-56.5
		c0-6.3-2.8-11-8.8-13c-5.7-1.9-11.1-0.8-15.4,3.9c-1.5,1.7-2.9,3.4-4.3,5.2c-32.4,41.7-64.9,83.4-97.3,125.1
		c-4.2,5.5-8.2,11-4.4,18.4c3.7,7.2,10.2,7.9,17.2,7.8c24.2-0.1,48.3-0.1,72.5,0c12.8,0,12.8,0.1,12.9,12.5
		c0,10.4-0.1,20.8,0.1,31.2c0.2,10,5.4,15.5,14,15.5c8.6-0.1,13.4-5.4,13.5-15.7c0.2-11.5,0.3-23,0-34.6c-0.1-6.5,2.7-9.2,9.1-8.9
		c6.7,0.2,13.5,0.1,20.2,0c9.6-0.3,14.9-5.2,14.9-13.4c0-8.3-5.3-13.6-14.6-14c-6.7-0.3-13.5-0.4-20.2,0c-6.9,0.4-9.6-2.4-9.5-9.3
		C883.1,739,882.9,721,882.9,703z M630.5,447.5c-10.4,0.3-16.1,9.8-12.3,20.5c3,8.5,6.6,16.7,10.3,24.9c3.7,8.2,11,11.4,18.5,8.5
		c6.8-2.6,10-10.1,7-18.4c-3.2-9-7.1-17.7-10.9-26.5C640.6,450.8,636,448.1,630.5,447.5z M463.9,617.6c-8.5-0.3-13,2.3-15.6,8.1
		c-2.7,6.1-1.1,11.9,3.7,15.1c10.8,7,22.8,12.1,35.5,14.5c6.1,1.2,11.2-2.1,13.3-8.1c2-5.6,1.8-11.9-3.6-15.3
		C486.4,624.9,474.1,620.8,463.9,617.6z M882.8,464.7c0.5-8.8-2.3-13.5-8.5-16.1c-5.8-2.4-11.3-0.9-14.4,3.6
		c-7.3,11-12.5,23.2-14.8,36.2c-1,5.8,2.2,10.6,7.7,12.7c5.9,2.2,12.4,1.9,15.9-3.7C875.5,486.7,879.5,474.7,882.8,464.7z
		 M1036.7,617.5c-9.5,2-20.1,7.4-30.7,12.2c-7,3.2-9.8,10.9-6.8,17.7c3,7,9.1,9.5,15.9,7.6c10.8-3,21.2-7.4,31-12.8
		c5.5-3.1,8.1-8.5,6-15.1C1050.1,620.7,1045.7,617.4,1036.7,617.5z M463.1,883.5c10.9-3.3,23.9-7.2,34.8-15.2
		c5.2-3.9,5.1-10.6,2.1-16.2c-3.2-6-9.1-8.2-15.1-6.1c-10.6,3.6-21,7.9-31,12.9c-5.6,2.8-8.1,8.5-6.1,15.1
		C449.8,880.2,454.2,883.5,463.1,883.5z M617.2,1035.9c-0.7,8.5,1.6,13.2,7.4,16c5.9,2.9,11.9,1.8,15.2-3.1
		c7.6-11.2,12.9-23.6,15-37c0.9-5.9-2.7-10.4-8.2-12.3c-5.6-1.9-11.8-1.6-15.2,3.8C624.5,1014.1,620.7,1026.1,617.2,1035.9z
		 M883,1036.9c-2.2-9.2-7.3-19.8-12.2-30.4c-3.3-7.1-10.9-9.8-17.7-6.9c-7,3-9.6,9-7.7,15.9c3,10.8,7.3,21.2,12.8,31
		c3.1,5.5,8.5,8.2,15.1,6.1C879.6,1050.6,882.9,1046.2,883,1036.9z M1035.9,883.3c8.9,0.4,13.5-2.5,16-8.7
		c2.4-5.8,0.7-11.4-3.9-14.3c-11.1-7-23.2-12.5-36.3-14.7c-5.8-1-10.5,2.4-12.5,7.9c-2.1,5.6-1.9,11.8,3.3,15.3
		C1013.4,876,1025.7,879.8,1035.9,883.3z M528.5,985.5c2.6,0,5.1-0.6,7.1-2.1c9.5-7.4,18.2-15.9,25.5-25.5c4.4-5.7,2.9-11.9-2-16.7
		c-5-4.9-11.1-5.9-16.8-1.5c-9.1,7.1-17.1,15.4-24.4,24.2c-3.5,4.2-3.1,9.5-0.9,14.4C519.1,983.1,523.5,984.8,528.5,985.5z
		 M950.8,564.1c1.5-0.5,3.6-0.6,5.1-1.7c10.6-7.9,20.2-16.9,27.7-27.8c3.8-5.6,1.5-11.6-3.4-15.8c-5-4.3-11-5.1-16.2-0.9
		c-9.2,7.4-17.4,15.8-24.9,24.9c-3.3,4-3.4,8.8-0.9,13.4C940.8,561.1,945,563.4,950.8,564.1z M563.8,549.7c-0.3-1.2-0.4-3.4-1.5-4.8
		c-7.6-10.6-16.7-19.8-27.2-27.3c-5.1-3.6-11.6-2.5-16.1,2.6c-4.7,5.2-5.2,11.7-0.9,17.1c7.2,9,15.5,17.1,24.4,24.4
		c4,3.3,8.8,3.5,13.5,1.1C560.8,560.1,563.4,556,563.8,549.7z M736.9,452.2C736.8,452.2,736.8,452.2,736.9,452.2
		c-0.1,5.6-0.4,11.2,0,16.8c0.6,7.7,5.7,11.4,12.8,12.1c6.4,0.6,12.6-4.7,13.3-11.6c1.1-11.5,1.1-23,0-34.5
		c-0.7-7.2-5.9-10.7-12.7-11.3c-6.5-0.5-12.5,4.6-13.3,11.5C736.4,440.9,736.9,446.6,736.9,452.2z M984.4,970.8
		c-0.1-1.7-0.2-4.4-1.9-6.4c-7.8-9.2-16-18.2-25.7-25.4c-5.5-4.1-11.4-2.4-16,2.2c-4.9,4.9-6.2,11-1.8,16.8
		c7.1,9.1,15.5,17.1,24.3,24.5c4.2,3.5,9.5,3.3,14.4,0.9C982.4,981,984.4,976.8,984.4,970.8z M763.1,1048.4c0-5.6,0.4-11.3-0.1-16.8
		c-0.7-7.6-5.9-11.7-13-11.7c-7.1,0-12.7,4.1-13,11.7c-0.5,11.2-0.6,22.4,0,33.6c0.4,7.6,5.8,11.7,13,11.7c7.2,0,12.3-4.1,13.1-11.7
		C763.6,1059.7,763.1,1054,763.1,1048.4z"/>
	<path class="st1" d="M855.2,728.1c0,9.8-0.2,19.7,0.1,29.5c0.1,5.9-1.9,8.8-8.2,8.7c-14.9-0.2-29.8-0.1-44.6-0.1
		c-5.8,0-7.4-2-3.6-6.9c16.7-21.5,33.4-43,50.2-64.4c1.1-1.5,2.2-3.8,4.5-3.1c2.4,0.8,1.6,3.3,1.7,5.1
		C855.2,707.3,855.2,717.7,855.2,728.1z"/>
</g>
</svg>
