<?xml version="1.0" encoding="utf-8"?>
<!-- Generator: Adobe Illustrator 27.9.0, SVG Export Plug-In . SVG Version: 6.00 Build 0)  -->
<svg version="1.1" id="Layer_1" xmlns="http://www.w3.org/2000/svg" xmlns:xlink="http://www.w3.org/1999/xlink" x="0px" y="0px"
	 viewBox="0 0 1500 1500" style="enable-background:new 0 0 1500 1500;" xml:space="preserve">
<style type="text/css">
	.st0{fill:#AFC6D3;}
	.st1{fill:#1E3464;}
</style>
<circle class="st0" cx="750" cy="750" r="733.3"/>
<g>
	<path class="st1" d="M484.1,1137.6c-5.7-3.8-10-8.4-9.6-15.9c0.5-9.1,7.1-16,17.4-14.5c16.3,2.3,23.6-5.1,30.7-18.9
		c28.5-55.6,58.3-110.6,87.9-165.6c3.3-6.1,2.6-9-3.3-12.4c-37.1-21.3-67.6-49.8-91.8-85.1c-13.9-20.2-25.1-41.9-33.3-65.1
		c-7.9-22.5-2-18.2-25.4-18.6c-13.1-0.2-26.2,0.1-39.3-0.1c-10.4-0.2-17.2-5.5-18.4-13.5c-1.5-10.4,5.7-18.3,17.7-18.6
		c14.4-0.4,28.7-0.1,43.1-0.1c8.9,0,8.2-0.3,7.9-9c-0.5-13.7-4.4-23.4-16.7-32.2c-16-11.4-19.1-29.8-12.3-48.4
		c6.6-18,20.4-27.5,39.4-29.8c2.5-0.3,5-0.2,7.6-0.2c176.2,0,352.4,0,528.6,0c19.8,0,35.3,7.3,44.8,25.2c11.3,21.3,3.2,47.8-18.6,60
		c-5.2,2.9-7.1,6.1-7,11.8c0.1,5.5-0.7,11.1-1.7,16.5c-0.9,4.9,0.9,6.2,5.5,6.1c15.4-0.2,30.8-0.2,46.1,0.1
		c7.6,0.1,13.8,3.2,16.5,10.9c2.3,6.6,0.6,12.5-4.7,17.1c-4.2,3.6-9.6,4.3-14.9,4.3c-16.1,0-32.3,0.3-48.4-0.1
		c-6.1-0.1-8.9,2.2-10.7,7.9c-19.4,60.9-55.2,109.8-107,147.2c-6.5,4.7-13.4,9.1-20.4,13c-4.9,2.7-5.4,5.3-2.7,10.2
		c18.2,33.7,36.1,67.6,54.1,101.4c14,26.2,28.1,52.4,41.9,78.8c2.7,5.2,5.8,7.8,11.7,7.1c3.2-0.4,6.5,0,9.8-0.1
		c7.4-0.1,12.7,3.1,15.5,9.9c3,7.2,0.7,13.3-5,18.3c-0.9,0.8-1.8,1.8-2.7,2.6c-25.7,0-51.4,0-77.2,0c-7-4.8-11.5-10.9-8.7-19.8
		c2.3-7.3,7.8-10.7,15.4-11c8.5-0.3,8.5-0.5,4.3-8.4c-15.2-28.5-30.5-56.8-45.4-85.4c-3.1-5.9-6.5-8.2-13.3-8.2
		c-63.5,0.3-127,0.2-190.5,0.2c-30.5,0-61,0-91.5,0c-4,0-7.2,0.4-9.4,4.6c-16.3,31-32.9,61.8-49.4,92.7c-1.4,2.6-2.4,4.7,2.1,4.7
		c8.2,0.1,14.1,3.8,16.1,12.1c2.1,8.7-2.4,14.4-9.5,18.7C534.6,1137.6,509.4,1137.6,484.1,1137.6z M750.1,680.8
		c-79.7,0-159.4,0-239,0c-2.5,0-5,0.1-7.6,0c-3.9-0.1-5.5,1.8-5.1,5.6c0.6,5.3,0.9,10.6,1.7,15.8c10.9,65.8,41.7,120.6,94.6,161
		c72,55,153,69.5,238.4,38.9c97.7-35,152.7-107.1,167.7-209.7c1.6-11,0.7-11.7-10.2-11.7C910.5,680.8,830.3,680.8,750.1,680.8z
		 M749.6,621.8c-86.5,0-173,0-259.4,0c-3.3,0-6.6-0.1-9.8,0.2c-7.3,0.7-12.3,6-12.4,12.8c-0.1,6.5,4.3,12,11.1,13.2
		c2.9,0.5,6,0.4,9,0.4c174.7,0,349.4,0,524.2,0c2.8,0,5.6,0.1,8.3-0.3c7-1.2,11.4-6.9,11-14c-0.4-6.9-4.8-11.5-12-12.2
		c-3.3-0.3-6.5-0.2-9.8-0.2C923.1,621.8,836.4,621.8,749.6,621.8z M751.2,972.6c40.6,0,81.2,0,121.7,0c10.5,0,10.5,0,5.5-9.6
		c-4.9-9.4-10.3-18.5-14.8-28.1c-3-6.6-6.5-7.2-13-4.6c-29.6,11.6-60.3,17.6-92.1,18.6c-36.9,1.1-72.8-4.5-107.3-17.8
		c-6.1-2.4-9-0.8-11.7,4.8c-4.7,9.8-10.1,19.2-15.1,28.8c-4.1,7.7-3.9,8,5,8C670,972.6,710.6,972.6,751.2,972.6z"/>
	<path class="st1" d="M802,377.7c-0.5,18-9.3,29.2-21.5,38.4c-4.6,3.5-9.5,6.7-14.2,10.1c-12.8,9.4-12.8,17.1,0.1,26.6
		c7.3,5.4,15.1,10.1,21.6,16.5c18.7,18.4,18.6,44.7-0.2,63.1c-6.9,6.8-15.1,11.7-22.8,17.5c-4.6,3.5-7.6,7.6-8.8,13.5
		c-2,10.4-10,16.1-18.7,14.2c-8.9-1.9-13.7-10.1-12.5-20.3c1.7-14.3,9.8-24.5,20.8-32.9c5.4-4.1,11.2-7.7,16.5-12
		c9.8-7.8,9.9-15,0.3-22.9c-5.3-4.3-11-8-16.4-12.1c-29.3-22.3-29-55.1,0.9-76.9c3.7-2.7,7.3-5.4,11.1-7.9
		c6.6-4.3,11.1-9.6,12.6-17.8c1.7-8.9,8.7-13.4,17.1-12.4C796.3,363.5,802,370.4,802,377.7z"/>
	<path class="st1" d="M890.3,362.5c10.4-0.1,17.3,8.7,15.9,20.3c-1.8,14.8-10.4,25.3-22,33.9c-5.7,4.2-11.7,8-17,12.6
		c-8.1,6.8-8.2,13.5-0.2,20.3c6.1,5.2,13,9.5,19.4,14.5c18.3,14.5,24.2,32.6,17.3,51.9c-3.5,9.7-10.6,16.4-18.3,22.6
		c-4.5,3.6-9.3,6.9-14.1,10.2c-5.6,3.9-9.4,8.6-10.7,15.7c-1.8,9.5-9.7,15-17.9,13.5c-8.9-1.5-14.3-9.8-13.3-19.8
		c1.5-14.7,9.8-25,21-33.6c5.6-4.3,11.6-8,17.1-12.5c9-7.4,9.1-14.5,0.2-21.9c-5.2-4.3-10.9-8.1-16.4-12.2
		c-29.9-22.5-29.8-55.3,0.4-77.3c3.5-2.5,6.9-5.1,10.5-7.5c6.7-4.4,11.7-9.7,13.2-18.3C876.9,366.7,882.8,362.5,890.3,362.5z"/>
	<path class="st1" d="M697.8,376.4c-0.7,19.5-9.7,30.7-21.8,39.8c-5.8,4.4-12.1,8.3-17.6,13c-8,6.8-8,13.6,0,20.3
		c6.2,5.2,13.1,9.5,19.4,14.5c18.4,14.6,24.4,33.5,16.9,52.7c-3.6,9.3-10.6,15.9-18.1,21.9c-4.9,3.9-10.2,7.4-15.3,11.1
		c-4.9,3.5-8,7.9-9.2,14.1c-1.9,10-9.8,15.6-18.2,14.1c-9-1.6-13.9-9.6-12.9-20c1.4-14.8,9.9-25,21-33.5c5.8-4.5,12.1-8.3,17.6-13
		c8.2-6.9,8.2-13.9-0.1-20.9c-5.6-4.7-11.8-8.7-17.6-13.1c-29-22.3-28.6-54.6,0.8-76.5c4-3,8.1-6,12.3-8.7c6.2-4,10.2-9.2,11.7-16.7
		c1.9-9.4,8.8-14,17.4-12.8C692.2,363.7,697.8,370.9,697.8,376.4z"/>
	<path class="st1" d="M755.5,892.5c-11,0.1-18.2-4.1-20.4-11.3c-3.3-11,4.2-20.4,17.2-20.8c16.7-0.4,33.1-2.5,49.2-7
		c46.5-12.9,83.2-39.5,110.6-79.2c1.4-2.1,2.8-4.2,4.3-6.2c6.2-7.7,14.6-9.2,22-4.1c7,4.8,9.1,13.3,4.3,21.3
		c-11.8,19.8-26.9,37.1-44.4,52.1c-38.6,32.9-83.2,51.3-134,54.3C761,891.8,757.8,892.2,755.5,892.5z"/>
	<path class="st1" d="M954.1,705.9c8.8,0.1,15.8,7.2,15.6,15.9c-0.2,8.1-7.5,15.2-15.6,15.3c-8.6,0.1-15.9-7-16-15.7
		C938,712.9,945.2,705.8,954.1,705.9z"/>
</g>
</svg>
