<?xml version="1.0" encoding="utf-8"?>
<!-- Generator: Adobe Illustrator 27.9.0, SVG Export Plug-In . SVG Version: 6.00 Build 0)  -->
<svg version="1.1" id="Layer_1" xmlns="http://www.w3.org/2000/svg" xmlns:xlink="http://www.w3.org/1999/xlink" x="0px" y="0px"
	 viewBox="0 0 1500 1500" style="enable-background:new 0 0 1500 1500;" xml:space="preserve">
<style type="text/css">
	.st0{fill:#AFC6D3;}
	.st1{fill:#1E3464;}
</style>
<circle class="st0" cx="750" cy="750" r="733.3"/>
<g>
	<path class="st1" d="M749.3,1168.6c-136.5,0-273,0-409.5,0c-19.9,0-24.3-4.3-24.3-24c0-121.1,0-242.2,0-363.4c0-14,0-14-14.3-14.2
		c-29.1-0.3-49.9-20.6-49.9-48.9c-0.1-28.2,20.8-48.8,49.9-48.9c70.3-0.1,140.5-0.2,210.8,0.2c9.5,0,12.7-2.4,12.6-12.3
		c-0.6-33.4-0.3-66.9-0.2-100.4C524.6,449.1,599.4,357.7,705,336c127.4-26.2,250.9,61.6,268.5,190.8c4,29.3,1.1,58.8,1.8,88.2
		c0.3,14.4,0.6,28.8-0.1,43.2c-0.4,9,2.9,11.3,11.5,11.3c70.9-0.3,141.9-0.2,212.8-0.1c23.6,0,41.8,14.4,47.6,37
		c7.8,30.1-14.7,60-45.8,60.7c-18.1,0.4-17.2-2.8-17.2,17.3c0,119.4,0,238.9,0,358.3c0,22.4-3.6,25.9-26.4,25.9
		C1021.6,1168.6,885.5,1168.6,749.3,1168.6z M750.2,767c-129.2,0-258.3,0-387.5,0c-13.7,0-13.8,0-13.8,13.7
		c0,111.4-0.1,222.8,0,334.3c0,22.7-3.5,19.6,20.4,20.2c7.8,0.2,10.5-2.3,10.4-10.3c-0.4-28.1-0.2-56.2-0.1-84.3
		c0.1-29.1,20.6-50,48.7-50.1c28.3-0.1,48.9,20.7,49,49.7c0.1,25.1-0.1,50.2,0.1,75.3c0.1,22-3.1,19,20,19.6
		c8.3,0.2,11-2.5,10.9-10.9c-0.4-28.1-0.3-56.2-0.1-84.3c0.1-28.4,20.7-49.3,48.2-49.5c28.4-0.2,49.3,20.5,49.5,49.3
		c0.2,25.4-0.1,50.9,0.1,76.3c0.1,21.4-2.8,18.4,19.5,19.1c8.9,0.3,11.4-2.7,11.3-11.4c-0.4-37.1-0.2-74.3-0.2-111.4
		c0-16.6,5.1-21.8,21.4-21.8c61.2,0,122.5,0,183.7,0c15.8,0,21.1,5.3,21.2,21c0.1,34.5-0.1,68.9,0.1,103.4
		c0.1,22.7-3.4,19.6,20.4,20.2c7.8,0.2,10.6-2.2,10.5-10.3c-0.4-28.1-0.2-56.2-0.1-84.3c0.1-29.1,20.6-50,48.7-50.1
		c28.3-0.1,48.9,20.7,49.1,49.7c0.1,25.1-0.1,50.2,0.1,75.3c0.1,22.1-3.1,19,19.9,19.7c8.3,0.2,11-2.5,10.9-10.8
		c-0.4-27.8-0.2-55.5-0.1-83.3c0-5,0-10,1.4-14.9c7.1-24.2,29.4-38.6,54.8-35.3c23.6,3,41.3,23.3,41.5,48c0.2,28.8,0.2,57.6,0,86.3
		c-0.1,7.2,1.9,10.9,9.6,10c2.6-0.3,5.3,0,8,0c13.2,0,13.2,0,13.2-13.2c0-113.4,0-226.9,0-340.3c0-14.5,0-14.5-15-14.5
		C1007.2,767,878.7,767,750.2,767z M749.9,733.5c59.9,0,119.7-0.2,179.6,0.2c9.5,0.1,12.6-2.5,12.5-12.3
		c-0.5-51.2-0.3-102.3-0.2-153.5c0-15.8-1.4-31.4-4-46.9c-17.1-99.5-119.3-170.8-218.5-152.5c-96.7,17.8-161.3,95.1-161.5,193.6
		c-0.1,52.8,0.2,105.7-0.2,158.5c-0.1,9.9,2.3,13.2,12.7,13.1C630.2,733.2,690.1,733.5,749.9,733.5z M749.1,1135
		c23.4,0,46.8-0.2,70.3,0.1c7,0.1,10.3-1.6,10.2-9.4c-0.4-30.8-0.3-61.6,0-92.3c0.1-6.8-2.1-9.5-9.2-9.4c-46.8,0.2-93.7,0.2-140.5,0
		c-7.6,0-9.8,2.7-9.7,10c0.3,30.4,0.4,60.9,0,91.3c-0.1,8.5,3.4,10.1,10.8,10C703.6,1134.8,726.3,1135,749.1,1135z M409.5,702.8
		c-33.4,0-66.9,0-100.3,0c-15.8,0-23.9,5.2-23.9,15.3c-0.1,10.1,8.1,15.4,23.8,15.4c65.2,0,130.4,0.1,195.6,0
		c22.2,0,19.1,3.1,19.9-19.7c0.3-9.2-3.2-11.2-11.7-11.1C478.4,703,443.9,702.8,409.5,702.8z M1089.8,733.5c33.4,0,66.9,0,100.3,0
		c16,0,23.9-4.9,24.3-14.9c0.4-10.3-8-15.8-24.4-15.8c-65.2,0-130.4-0.1-195.5,0c-21.5,0-18.5-2.8-19.2,19.4
		c-0.3,8.7,2.3,11.6,11.3,11.5C1020.9,733.2,1055.4,733.5,1089.8,733.5z M444,1085.3C443.9,1085.3,443.9,1085.3,444,1085.3
		c0-14.4,0.2-28.7-0.1-43.1c-0.3-10.7-6.8-17.8-15.3-17.7c-8.5,0.1-14.5,7.2-15.1,18c-0.2,2.7-0.1,5.3-0.1,8c0,21-0.2,42.1,0.1,63.1
		c0.3,24.3-4.5,21,22,21.5c6.5,0.1,8.9-2.3,8.8-8.8C443.7,1112.7,444,1099,444,1085.3z M572.5,1085.5c-0.1,0-0.1,0-0.2,0
		c0-15,0.4-30.1-0.2-45.1c-0.4-9.4-7.2-15.9-15-15.9c-7.9,0-14.1,6.4-15.2,15.8c-0.3,3-0.2,6-0.2,9c0,21.7-0.2,43.4,0,65.1
		c0.2,23.4-3.7,20.1,20.7,20.8c8.3,0.2,10.3-3.1,10-10.6C572.1,1111.6,572.5,1098.5,572.5,1085.5z M927.2,1084.6
		c0,9.7-0.2,19.4,0,29.1c0.5,24.3-4.5,21,22,21.5c6.5,0.1,8.8-2.3,8.8-8.8c-0.2-27.7,0-55.4-0.2-83.2c-0.1-11.4-6.6-18.8-15.4-18.7
		c-8.8,0.1-14.9,7.5-15.1,19C927.1,1057.2,927.3,1070.9,927.2,1084.6z M1086.4,1084.9c0-7.7,0-15.4,0-23c-0.1-7.7,0.3-15.4-0.5-23
		c-0.9-8.7-8-15-15.3-14.3c-8.4,0.8-13.1,6.1-14.5,14.3c-0.5,2.9-0.4,6-0.4,9c0,22-0.2,44.1,0,66.1c0.3,23.9-4.1,20.6,21.3,21.2
		c7.8,0.2,9.7-3.1,9.5-10.2C1086.2,1111.7,1086.4,1098.3,1086.4,1084.9z"/>
	<path class="st1" d="M750.9,862c36.5,0,72.9-0.1,109.4,0c29.9,0.1,50.9,20.4,50.9,48.9c0,28.5-21.1,48.8-51,48.9
		c-73.6,0.1-147.2,0.1-220.8,0c-29.9,0-50.8-20.3-50.9-48.9c0-28.5,21-48.7,50.9-48.8C676.6,861.9,713.7,862,750.9,862z
		 M749.4,926.2c34.5,0,68.9,0,103.4,0c16,0,24-5,24.3-14.9c0.4-10.3-8-15.8-24.5-15.8c-68.6,0-137.2,0-205.8,0c-3,0-6.1-0.2-9,0.2
		c-8.6,1.2-14.4,5.7-15.2,14.7c-0.7,7.8,6.1,14.4,15.4,15.5c3,0.4,6,0.2,9,0.2C681.2,926.2,715.3,926.2,749.4,926.2z"/>
	<path class="st1" d="M749.7,702.8c-80.4,0-145-64.3-145.1-144.4c-0.1-81.4,63.8-146,144.4-146.1c81.8-0.1,146.1,63.9,146.1,145.4
		C895.1,638.6,830.8,702.7,749.7,702.8z M750.5,445.9c-64.7,2-111.5,49.7-112,112.8c-0.4,60.1,51.2,111.2,111.3,110.2
		c64.1-1.1,111.7-49.4,111.2-112C860.5,492.9,811.8,448.2,750.5,445.9z"/>
	<path class="st1" d="M766.6,494.1c0,15.9,0,15.9-17.6,15.9c-15.9,0-15.9,0-15.9-17.6c0-15.9,0-15.9,17.6-15.9
		C766.6,476.5,766.6,476.5,766.6,494.1z"/>
	<path class="st1" d="M684.9,542.2c-16,0-16,0-16-17.5c0-16.1,0-16.1,17.5-16c16.1,0,16.1,0,16,18.5
		C702.3,542.2,702.3,542.2,684.9,542.2z"/>
	<path class="st1" d="M814.5,508.6c16.4,0,16.4,0,16.3,17.2c-0.1,18.3,1.3,16.2-18.2,16.3c-15.4,0.1-15.4,0-15.4-18.2
		C797.3,508.6,797.3,508.6,814.5,508.6z"/>
	<path class="st1" d="M749.1,574.3c-16,0-16,0-16-17.5c0-16.1,0-16.1,17.5-16c16.1,0,16.1,0,16,18.5
		C766.6,574.3,766.6,574.3,749.1,574.3z"/>
	<path class="st1" d="M685.7,572.9c16.6,0,16.6,0,16.6,16.9c0,16.6,0,16.6-17.9,16.6c-15.6,0-15.6,0-15.6-16.9
		C668.8,572.9,668.8,572.9,685.7,572.9z"/>
	<path class="st1" d="M813.4,606.4c-16.1,0-16.1,0-16.1-17.4c0-16.1,0-16.1,17.4-16.1c16.1,0,16.1,0,16.1,18.4
		C830.8,606.4,830.8,606.4,813.4,606.4z"/>
	<path class="st1" d="M766.6,622.4c0,16.2,0,16.2-17.4,16.2c-18.1-0.1-16.1,1.3-16.2-18.3c-0.1-15.2,0-15.2,18.3-15.2
		C766.6,605,766.6,605,766.6,622.4z"/>
</g>
</svg>
