<?xml version="1.0" encoding="utf-8"?>
<!-- Generator: Adobe Illustrator 27.9.0, SVG Export Plug-In . SVG Version: 6.00 Build 0)  -->
<svg version="1.1" id="Layer_1" xmlns="http://www.w3.org/2000/svg" xmlns:xlink="http://www.w3.org/1999/xlink" x="0px" y="0px"
	 viewBox="0 0 1500 1500" style="enable-background:new 0 0 1500 1500;" xml:space="preserve">
<style type="text/css">
	.st0{fill:#AFC6D3;}
	.st1{fill:#1E3464;}
</style>
<circle class="st0" cx="750" cy="750" r="733.3"/>
<g>
	<path class="st1" d="M286.5,444.5c2.8-2.8,4.9-6.2,8.4-8.4c10.9-6.8,27.2-1.5,30.6,11.8c1.5,5.6,2.3,11.4,3.1,17.2
		c0.8,6,2.4,11.9,3,17.9c0.6,5.2,2.2,10.2,2.5,15.5c0.3,4.9,1.6,9.7,2.3,14.6c1.6,10.8,3.4,21.5,5.3,32.2c1.6,9.1,2.8,18.3,4.7,27.3
		c1.1,5.2,1.1,10.6,2.3,15.8c1.4,6.3,2.3,12.7,3.4,19.1c1.8,10.5,3.4,21.1,5.2,31.6c2.2,12.6,3.7,25.4,6,38
		c1.8,9.7,3.3,19.4,4.9,29.1c1.5,9.1,3.2,18.2,4.4,27.3c0.7,5,0.8,10.2,2.6,15.2c1.3,3.7,0.8,7.7,2.1,11.5c3.1,9.7,9.8,14.9,20.1,15
		c27.5,0,55,0,82.5,0c44.3,0,88.6,0.1,132.9,0c10.1,0,17.6,4,21.1,13.4c4.2,11.1-1.4,24.8-14.4,26.8c-2.7,0.4-5.3,0.6-8,0.6
		c-16.3,0-32.5-0.2-48.8,0.1c-13.2,0.2-26.3-0.3-39.5-0.1c-4,0.1-4.3,0.4-4.3,4.2c0,66.2,0,132.4,0.1,198.7c0,5.4,0,5.4,5.5,5.4
		c23.1,0,46.1-0.1,69.2,0c8.1,0,14.6,3.5,18.2,11.1c5.8,12.3-0.6,29.6-17.3,29.6c-64,0.1-127.9,0.1-191.9,0
		c-12.6,0-22-13.7-18.4-25.4c3.3-10.6,9.9-15.4,21-15.4c22.1,0,44.3,0,66.4,0c6.3,0,6.3,0,6.3-6.2c0-39.6,0-79.1,0-118.7
		c0-26.2,0-52.3,0-78.5c0-4.7-0.2-4.9-4.9-4.8c-9.7,0.2-19.4,0.3-29,0.3c-9.9,0-19.8-0.4-29.6-0.2c-8.5,0.1-17,0.1-25.5-0.8
		c-11.3-1.2-21.2-5.6-30-12.5c-8.7-6.8-15.2-15.4-19.5-25.4c-2.5-5.9-4.3-12-4.8-18.4c-0.3-4.4-1.4-8.7-2.2-13.1
		c-1.6-8.8-2.7-17.6-4.4-26.4c-1.8-9.7-3-19.5-4.6-29.2c-1.5-8.9-3.4-17.8-4.5-26.7c-0.6-5.3-2.2-10.4-2.4-15.8
		c-0.2-4.5-1.4-8.9-2.2-13.3c-1.8-9.4-3.1-18.8-4.7-28.3c-1.5-9.1-2.8-18.3-4.4-27.4c-1.5-9-2.5-18.1-4.4-27c-2-9.2-2.6-18.7-4.4-28
		c-2.5-13.2-4.2-26.6-6.6-39.8c-0.9-4.9-2.3-9.8-2.3-14.9c0-1-0.2-1.9-1.2-2.3C286.5,459.4,286.5,451.9,286.5,444.5z"/>
	<path class="st1" d="M1213.5,455.6c-0.6,0.3-1,0.7-1.1,1.4c-1.3,8.2-2.6,16.4-3.9,24.6c-1.5,9-3,18-4.5,27.1
		c-1,6.1-1.9,12.2-2.8,18.3c-0.6,4.4-1.7,8.7-2.2,13.1c-1.2,10.4-3.4,20.6-4.9,31c-0.7,4.9-1.6,9.9-2.6,14.9
		c-1.1,5.7-1.8,11.5-2.7,17.3c-0.9,5.8-1.8,11.6-3,17.3c-0.8,3.9-1.3,7.9-1.9,11.8c-1.4,9.8-3.3,19.4-4.7,29.2
		c-1.1,7.9-2.6,15.8-3.8,23.7c-1.1,7-2.6,13.9-3.5,21c-1.1,8.6-2.9,17.2-4.3,25.8c-0.9,5.4-1.3,10.8-2.4,16.1
		c-1.2,5.8-1.8,11.7-3.1,17.5c-1.7,8.1-4.8,15.5-9.5,22.2c-8.7,12.6-20.1,21.6-35.1,25.7c-8.7,2.4-17.6,2.6-26.6,2.4
		c-9.9-0.2-19.8-0.4-29.6,0.3c-4.3,0.3-8.6-0.3-12.9-0.3c-7.9,0-15.9,0.2-23.8,0.2c-2.1,0-2.8,0.8-2.8,2.7c0,1.6,0,3.3,0,4.9
		c0,16.4,0,32.7,0,49.1c0,11.9,0,23.9,0,35.8c0,12.2,0,24.5,0,36.7c0,13,0,25.9,0,38.9c0,13-0.1,25.9-0.2,38.9c0,2.4,1.1,2.8,3,2.8
		c4.6,0,9.3,0,13.9,0c18.7,0,37.5,0,56.2,0c12,0,20.1,7.2,21.5,19c1,9-5.6,21.7-19.3,21.8c-22.7,0-45.3,0-68,0
		c-41.3,0-82.6,0-123.9,0c-8,0-13.8-3.9-17.1-11c-4.9-10.5-0.9-22.4,9.1-27.6c3.1-1.6,6.6-2.2,10.1-2.2c23.1,0,46.1,0,69.2,0
		c4.6,0,4.7-0.1,4.7-4.7c0-66.2,0-132.5,0.1-198.7c0-4.8-0.1-4.9-4.8-4.8c-8.3,0.1-16.7-0.3-25,0.4c-4.1,0.3-8.2-0.4-12.3-0.4
		c-18-0.1-36,0-54,0c-9,0-16-4.6-18.9-13.1c-1.7-5-1.2-10.5,0.3-15.4c1.7-5.4,6-9,11.3-11.2c1.9-0.8,3.9-0.5,5.8-0.5
		c36,0,72.1,0,108.1,0c35.9,0,71.9,0,107.8,0c7.1,0,13.6-1.8,18.6-7.3c4.1-4.6,5.9-10.1,6.3-16c0.4-5.4,2-10.5,2.5-15.8
		c0.6-5.7,1.5-11.4,2.7-17c1.3-5.9,1.4-12,3-17.9c1.1-3.8,1.1-7.7,1.9-11.5c1.8-9.3,2.9-18.7,4.3-28c0.7-4.5,1.5-8.9,2.2-13.4
		c1.7-10.8,3.7-21.6,5.3-32.5c1.2-8.6,3-17.2,4.5-25.8c1-6,1.7-12,2.9-17.9c1.1-5.2,1.5-10.6,2.4-15.8c1-5.5,2.5-11,2.6-16.7
		c0-3.8,1.5-7.4,2.1-11.2c0.9-5.6,1.7-11.2,2.6-16.7c1-5.9,2.3-11.7,2.8-17.6c0.4-4.4,1.6-8.7,2.2-13c1.5-10.5,3.7-20.8,5-31.3
		c1.3-10.4,11.3-18.7,19.8-18.7c9.2,0,15.2,3.8,19.4,11.5c0.2,0.4,0.7,0.7,1.1,1.1C1213.5,449.1,1213.5,452.3,1213.5,455.6z"/>
	<path class="st1" d="M558,652.1c-29.6,0-59.1,0-88.7,0c-11.9,0-20.6-7.1-21.9-18.8c-1.1-10.2,5.4-21.5,18.5-22.1
		c9.2-0.4,18.3-0.7,27.5-0.4c12.9,0.5,25.7-0.6,38.6,0c13.6,0.7,27.1-0.8,40.7,0.2c1.8,0.1,2.5-0.7,2.5-2.6
		c-0.1-8.5-0.4-17.1,0-25.6c0.3-7-0.4-14-0.1-21c0.1-2.1-0.6-3.3-3-3.8c-13.4-3-25.7-8.7-36.9-16.6c-9.4-6.6-17.6-14.6-24.4-23.8
		c-6.7-9-11.7-18.8-15.3-29.4c-3.9-11.5-5.6-23.3-5.2-35.4c0.4-10.4,9.4-19.4,19.8-19.4c56.2,0,112.5,0.1,168.7-0.1
		c11.5,0,20,8.6,19.8,19.5c-0.1,7.2-0.3,14.3-1.9,21.4c-2.3,10.4-5.8,20.3-11,29.7c-5.8,10.5-13.2,19.7-22,27.6
		c-9.5,8.5-20.1,15.4-32,20c-4.8,1.8-9.6,3.7-14.7,4.7c-2.4,0.4-3,1.6-3,3.8c0.1,15.9,0.1,31.7,0,47.6c0,2.4,0.9,3.3,3.3,3.3
		c6.4-0.1,12.8-0.2,19.2,0c12.1,0.4,24.3-0.5,36.4,0c12.2,0.5,24.5-0.5,36.7,0c12.2,0.5,24.5-0.5,36.7,0c11.8,0.5,23.7-0.4,35.5,0
		c12.2,0.5,24.5-0.4,36.7,0c12.8,0.4,25.5-0.6,38.2,0.1c9.9,0.5,19.7-0.6,29.6-0.1c2.9,0.2,4-0.8,4-3.8c-0.2-5.9-0.4-11.7-0.5-17.6
		c-0.1-8.8,0.5-17.7,0.5-26.5c0-3.3-1.3-4.5-4.3-5.1c-11-2.3-21.1-6.8-30.6-12.7c-13.1-8.1-24.1-18.7-32.7-31.4
		c-6.1-9-10.7-18.7-13.6-29.2c-2.3-8.1-3.6-16.2-3.9-24.6c-0.4-9.3,1.1-17.7,9.5-23.3c2.8-1.9,5.9-3.1,9.5-3.1
		c56.9,0.1,113.7,0.1,170.6,0c10.2,0,18.6,9.5,18.8,18.6c0.6,27.8-9.1,51.5-27.3,72c-12,13.5-26.7,23-43.7,29.1
		c-3.8,1.4-7.5,2.8-11.5,3.4c-2.5,0.4-2.3,2.2-2.3,4c0,11.2,0,22.5,0,33.7c0,3.7,0.1,7.4,0,11.1c-0.1,2.8,0.8,3.6,3.7,3.9
		c9,1,17.9-0.5,26.8-0.1c14.2,0.6,28.4-0.3,42.6,0.1c10.3,0.3,20.6-0.1,30.8-0.2c13.9-0.1,22.4,13.9,19.4,25.5
		c-2.7,10.5-11.3,15.7-21.2,15.8c-19.7,0.2-39.3,0.1-59,0.1c-23.7,0-47.3,0-71,0c-16.4,0-32.7,0-49.1,0c-4.2,0-4.2,0.1-4.6,4.3
		c-1.1,10-2.7,20-3.3,30c-0.5,8.9-2.3,17.5-3,26.4c-0.5,6.8-1.1,13.7-2.2,20.5c-1.4,9.1-1.8,18.4-3.2,27.5
		c-1.1,7.1-1.5,14.3-2.3,21.4c-0.9,7.5-1.9,15.1-2.6,22.6c-0.8,8.3-1.9,16.5-2.8,24.8c-0.9,8.5-1.8,17-2.9,25.4
		c-1.1,8.4-1.6,16.8-2.9,25.1c-1.4,9.5-1.9,19.2-3.2,28.8c-1.3,9.7-1.6,19.5-3.2,29.1c-1.3,8.1-2,16.3-2.9,24.5
		c-0.9,7.8-1.8,15.7-2.6,23.6c-1.1,11-2.5,22-3.7,33.1c-0.9,8.7-1.8,17.4-3.2,26c-1.3,7.4-5.7,12.9-12.5,16.2
		c-2.7,1.3-5.6,1.9-8.6,1.9c-21.7-0.1-43.5-0.3-65.2,0.1c-10.4,0.2-20.4-8.6-21.8-19.6c-1.4-11.3-2.5-22.7-3.8-34
		c-1.3-11.3-2.2-22.7-3.7-34c-2-15.4-3.2-30.9-5.1-46.2c-1.6-12.7-2.4-25.6-4-38.3c-1.7-13-2.9-26.1-4.4-39.2
		c-0.9-8-2.2-16.1-2.5-24.2c-0.3-7.9-1.7-15.7-2.6-23.6c-1-9-1.6-18-2.9-27c-1.3-9.2-1.9-18.4-3.1-27.6c-2-16-3.1-32.1-5.3-48.1
		c-1.3-9.2-1.5-18.5-2.8-27.6c-0.7-5.3-1.2-10.6-1.7-15.9c-0.4-3.8-0.5-4.1-4.5-4.1c-24.4,0-48.8,0-73.2,0
		C569.5,652.1,563.8,652.1,558,652.1z M703,650.3C703,650.3,703,650.3,703,650.3c-2.5,0-4.9,0-7.4,0c-1.7,0-2.2,0.7-2.1,2.5
		c0.7,8.8,2.2,17.5,2.8,26.3c0.5,6.9,1.2,13.9,2.3,20.8c1.3,8.3,1.9,16.7,2.8,25.1c0.9,7.9,1.6,16,2.6,23.9
		c1.6,13.2,2.4,26.6,4.5,39.8c1.2,7.3,1.5,14.7,2.3,22.1c1,8.8,2.5,17.5,3.1,26.3c1,14,3.1,27.8,4.4,41.7c0.8,9,2.2,17.9,2.9,26.9
		c0.7,8,1.6,16,2.6,23.9c1.6,13.1,2.6,26.3,4.4,39.5c1.7,12.1,2.7,24.3,4,36.4c0.3,3.2,0.5,6.3,0.8,9.5c0.2,2.2,1.3,3.1,3.6,3.2
		c8.2,0.4,16.4,0.7,24.7,0c2.2-0.2,3.5-0.8,3.7-3.1c0.6-6.8,1.2-13.7,2.2-20.5c1.3-8.1,1.8-16.3,2.7-24.5c1-9,1.9-18,3.1-26.9
		c1-7.7,1.5-15.5,2.6-23.3c1.1-7.7,2-15.5,2.7-23.2c0.7-7.2,1.6-14.3,2.4-21.4c0.9-7.4,1.7-14.9,2.6-22.3c1-8.4,2.2-16.7,3-25.1
		c0.6-7.2,1.4-14.5,2.6-21.7c1.2-7.5,1.6-15.1,2.4-22.6c0.4-3.3,1-6.5,1.3-9.8c1-8.6,1.7-17.2,2.9-25.7c1-7.1,1.6-14.3,2.4-21.4
		c1.1-9.8,2.6-19.6,3.4-29.4c0.6-7.2,1.9-14.3,2.4-21.4c0.6-7.4,1.4-14.7,2.5-22c0.4-2.8-0.3-3.4-2.9-3.4c-8.3,0.1-16.7,0-25,0
		C753.3,650.3,728.2,650.3,703,650.3z M908.4,474.2C908.4,474.2,908.4,474.2,908.4,474.2c-16.1,0-32.1,0-48.2,0
		c-3.1,0-6.2,0-9.3,0.1c-2,0-3,0.9-2,2.9c1.3,2.8,2.4,5.7,3.9,8.4c10,17.2,24.7,27.6,44.4,31.7c11.3,2.3,22,1,32.4-2.7
		c17.8-6.4,30.6-18.5,37.5-36.4c1.4-3.5,1.1-3.9-2.6-3.9C945.8,474.2,927.1,474.2,908.4,474.2z M591.6,474.2c-17.4,0-34.8,0-52.2,0
		c-1.7,0-3.5,0-5.2,0c-1.7,0-2.5,0.8-1.9,2.6c3.3,9.8,9,18.1,16.6,24.9c9.3,8.3,20.1,13.3,32.5,15.7c12.9,2.4,25,0.1,36.6-4.9
		c15.2-6.7,26-18.1,32.3-33.6c1.8-4.3,1.7-4.5-3.1-4.5C628.6,474.2,610.1,474.2,591.6,474.2z"/>
</g>
</svg>
