<?xml version="1.0" encoding="utf-8"?>
<!-- Generator: Adobe Illustrator 27.9.0, SVG Export Plug-In . SVG Version: 6.00 Build 0)  -->
<svg version="1.1" id="Layer_1" xmlns="http://www.w3.org/2000/svg" xmlns:xlink="http://www.w3.org/1999/xlink" x="0px" y="0px"
	 viewBox="0 0 1500 1500" style="enable-background:new 0 0 1500 1500;" xml:space="preserve">
<style type="text/css">
	.st0{fill:#AFC6D3;}
	.st1{fill:#1E3464;}
</style>
<circle class="st0" cx="750" cy="750" r="733.3"/>
<g>
	<path class="st1" d="M819.6,357.2c11.7,0,19.6,5.2,26.8,12.3c94.6,94.7,189.4,189.2,283.9,284.1c16.9,17,16.3,31.4,0,49.2
		c-42.2,46.2-49.3,46.3-94,1.6C951,619.1,865.7,533.9,780.4,448.6c-25.2-25.3-25.2-37.4,0.6-62.7
		C792.8,374.4,802.1,359.2,819.6,357.2z"/>
	<path class="st1" d="M416.6,762c11.1,0.3,19.1,5.6,26.2,12.7c94.1,94.1,188.4,188.1,282.3,282.5c17.6,17.7,16.9,32.5-0.2,51
		c-42.1,45.5-48.2,45.6-92.3,1.5c-85.8-85.7-171.5-171.5-257.2-257.3c-24.3-24.3-24.5-37.1,0.2-61.1
		C387.9,779.4,397.6,763.5,416.6,762z"/>
	<path class="st1" d="M937.3,630c-0.7,7.2-5.1,10.9-9,14.8c-94.6,94.7-189.3,189.2-283.7,284c-9.4,9.5-16.5,10.2-25.9,0.1
		c-15.2-16.3-31.1-32-47.3-47.3c-9.4-8.9-10.9-15.9-0.9-25.8c95.3-94.9,190.4-190,285.4-285.2c7.4-7.4,13.9-10.7,22.7-1.6
		c16.9,17.6,34.5,34.5,51.6,51.9C933.2,623.7,935.3,627.3,937.3,630z"/>
	<path class="st1" d="M962.6,323.6c10.3,0.6,18.6,5.1,25.8,12.3c58.7,58.8,117.6,117.3,176,176.4c16.2,16.4,16.3,31.5,0.6,47.7
		c-40,41.2-46.2,54.6-95.5,2.9c-46.2-48.5-94.5-95-141.9-142.4c-33.1-33.1-33.2-40.2-0.5-73.1C946.6,327.8,952.8,323.7,962.6,323.6z
		"/>
	<path class="st1" d="M384.2,903.8c9.6-0.7,17.3,4.9,24.4,12c58.6,58.6,117.3,117,175.7,175.9c16.9,17.1,16.4,31.6,0.2,49.1
		c-43.2,46.9-49,47-93.7,2.3c-50.2-50.2-100.5-100.4-150.6-150.7c-22.6-22.6-22.4-35.3-0.1-58C367.6,906.5,371,904.1,384.2,903.8z"
		/>
	<path class="st1" d="M1146.1,414.9c-0.6,12.1-7.3,23.1-18.7,29.1c-11,5.7-15.1-7-21.1-12.6c-14.3-13.1-26.9-28.4-41.8-40.8
		c-15.8-13.2-9.4-21.6,3.4-30.5c5.9-4.1,12.2-6.6,19.5-6.2C1105.4,354.7,1145.7,395.6,1146.1,414.9z"/>
	<path class="st1" d="M415.2,1146.1c-9.2-0.4-16.4-2.8-22.1-8.3c-10.4-10.2-21.2-20.1-30.8-31c-12.5-14.3-10.9-30.9,2.1-44.8
		c7.7-8.2,14.1-9.5,22.4-0.6c14.8,15.6,30.7,30.2,45.4,46c5.5,5.9,17.9,10.3,11,21.5C436.9,1139,426.8,1145.5,415.2,1146.1z"/>
</g>
</svg>
