<?xml version="1.0" encoding="utf-8"?>
<!-- Generator: Adobe Illustrator 27.9.0, SVG Export Plug-In . SVG Version: 6.00 Build 0)  -->
<svg version="1.1" id="Layer_1" xmlns="http://www.w3.org/2000/svg" xmlns:xlink="http://www.w3.org/1999/xlink" x="0px" y="0px"
	 viewBox="0 0 1500 1500" style="enable-background:new 0 0 1500 1500;" xml:space="preserve">
<style type="text/css">
	.st0{fill:#AFC6D3;}
	.st1{fill:#1E3464;}
</style>
<circle class="st0" cx="750" cy="750" r="733.3"/>
<g>
	<path class="st1" d="M955.4,329.3c40,15.4,77.2,34.3,99,74.3c19.2,35.2,25.9,71.3,11.5,109.8c-3.8,10.1-7,21.8-21.4,19.8
		c-14.8-2.1-10.8-14.6-11.1-23.7c-1.9-56-20-74-75.6-74c-8.3,0-16.6-0.1-24.9,0c-45.8,0.5-65.3,19.6-66.1,64.6
		c-0.6,33.9-0.6,33.9-34.7,34.8c-45.9,1.1-64,19.7-64.2,66.1c-0.1,14.9-0.4,29.8,0.1,44.7c1.2,33.4,21.4,53.4,54.8,55
		c4.1,0.2,8.3-0.3,12.4,0.2c10.7,1.4,25.6-5.1,29.7,10.4c3.8,14.4,4.4,29.8-8.3,41.7c-7.9,7.3-16,14.5-23.7,22
		c-40.7,39.9-40.9,40.2-82.1-0.9c-59.2-59-126-110.5-177.3-177.2c-28.2-36.6-49.3-76.1-53.9-123.5c-5.6-57.5,24-109,77.6-131.1
		c11.5-4.7,23.2-8.7,34.8-13c14.9,0,29.8,0,44.8,0c39.3,8.9,71.6,29.8,98.9,58.6c12.1,12.8,22,14.3,34.2-0.5
		c23.9-28.8,54.3-48.2,90.6-58.1C918.9,329.3,937.2,329.3,955.4,329.3z"/>
	<path class="st1" d="M328.9,786.8c40.5,0.2,81,1,121.5,0.2c20.5-0.4,29.6,5.7,29.4,28.2c-1,87.6-0.8,175.2-0.1,262.9
		c0.2,19.8-5.9,28.6-26.8,28c-41.3-1.2-82.6-0.8-124-1C328.9,998.9,328.9,892.9,328.9,786.8z"/>
	<path class="st1" d="M510.8,948.5c0-36.4,0.7-72.9-0.3-109.3c-0.5-18.7,5.8-26,25.2-27.6c76.8-6,148.5,7.9,213,51.1
		c21.1,14.2,43.1,18.8,67.9,18.1c22.2-0.7,44.7-3.2,66.7,3.3c16.5,4.8,27.8,15.1,31.4,31.9c3.4,15.6-5.4,26.9-16.3,36.7
		c-19.5,17.5-43.2,23.9-68.6,24.6c-18.2,0.5-36.4-0.3-54.6-0.1c-9.2,0.1-16.4,3.6-17.3,14c-0.9,10.1,5.3,14.8,14.2,17.4
		c61,17.9,138.1-14.6,167-70.8c5.2-10.1,12.1-17,22.3-22c37.2-18,74.1-36.9,111.3-54.9c35.1-17,72.1-8,90,21.2
		c17.4,28.3,7.6,61-25.6,85.6c-99.7,73.6-208.3,131.7-320,184.5c-58.7,27.7-117.6,23.1-174.9-4.8c-36.4-17.7-71.7-37.9-108-55.9
		c-16.7-8.3-24.6-18.9-23.7-38.6C511.9,1018.1,510.8,983.3,510.8,948.5z"/>
	<path class="st1" d="M1100.5,620c0,48.7-3.4,52.1-52.2,52.2c-0.8,0-1.7,0-2.5,0c-44.7,0.1-44.2,0.1-44.9,44.4
		c-0.3,16.6,7.2,39.2-13.4,46.5c-25.6,9-54.3,10.2-79.8-1.7c-14.3-6.6-11.6-24.4-11.7-38.3c-0.4-54.2,4.8-50.9-51.2-51.1
		c-40.6-0.1-48.1-7.6-48.4-47.6c-0.1-8.3,0-16.6,0.2-24.8c0.3-22,10-34.1,33.5-33c14.9,0.7,29.8-0.3,44.7,0.1
		c14.6,0.5,21.3-5.9,21.2-20.6c-0.2-17.4-0.1-34.8,0.8-52.1c0.9-16.3,9.5-26.1,26.8-26.3c0.8,0,1.7-0.1,2.5-0.1
		c78.8-0.5,76.7-5.5,74.6,70.3c-0.6,23.3,7.6,32,30,29c5.7-0.7,11.6-0.1,17.4-0.1C1100.1,566.7,1100.6,567.2,1100.5,620z"/>
</g>
</svg>
