<?xml version="1.0" encoding="utf-8"?>
<!-- Generator: Adobe Illustrator 27.9.0, SVG Export Plug-In . SVG Version: 6.00 Build 0)  -->
<svg version="1.1" id="Layer_1" xmlns="http://www.w3.org/2000/svg" xmlns:xlink="http://www.w3.org/1999/xlink" x="0px" y="0px"
	 viewBox="0 0 1500 1500" style="enable-background:new 0 0 1500 1500;" xml:space="preserve">
<style type="text/css">
	.st0{fill:#AFC6D3;}
	.st1{fill:#1E3464;}
</style>
<circle class="st0" cx="750" cy="750" r="733.3"/>
<g>
	<path class="st1" d="M302.9,808.1c0-94.7,0.2-189.4-0.2-284.1c-0.1-16,5.4-27.5,17.9-37.3c40.3-31.9,80.1-64.5,120.1-96.8
		c16-12.9,27-13.1,42.9-0.3c40.8,32.7,81.3,65.8,122.3,98.2c11.8,9.3,17.4,20.8,16.7,35.4c-0.3,6.9,2.5,10.9,8,15
		c39,28.8,77.8,58,116.5,87.2c5.5,4.2,10.6,5.9,17.6,3.8c16.7-4.9,33.7-9.1,50.6-13.1c5.5-1.3,9.1-4.4,12.3-8.8
		c31-42.5,62.2-84.8,93.2-127.3c4.9-6.7,10.9-11.1,19.5-11.5c10.9-0.5,19.7,3.7,24.5,13.4c4.7,9.5,3.4,19.4-2.9,28
		c-31.1,42.4-62.3,84.7-93.6,126.9c-2.9,3.9-3.4,7.7-2.3,12.2c7.2,28.4,14.4,56.8,21.2,85.3c1.7,7.1,4.3,8.2,10.7,5
		c9.9-4.9,20.1-9.2,30.3-13.3c19.4-7.6,37.9,1.5,42.2,22c11.1,52.5,21.4,105.2,32,157.8c0.3,1.4,0.6,2.9,0.5,4.3
		c-0.3,4.4-0.3,9.8-4,11.9c-4.3,2.3-6.9-3.1-9.7-5.6c-21.9-19.4-40.1-41.9-56.9-65.8c-6-8.5-5.5-18.8-8.1-28.2
		c-1.7-6.1-2.9-12.5-3.7-18.8c-0.8-6.7-3.8-7.9-9.2-4.5c-7,4.3-11,2-15.2-4.8c-38.8-63.5-94.9-104-166.3-123.9
		c-8.9-2.5-16.5-6.7-23.7-12.2c-25.2-19.2-50.6-38.2-75.9-57.2c-1.7-1.3-3.3-4-5.9-2.7c-2.4,1.3-1.6,4.1-1.6,6.4
		c-0.1,22.7,0.1,45.3-0.1,68c-0.1,6.5,2.7,8.3,8.9,8.4c56.2,1.4,109.3,14.4,158.1,42.8c34.5,20.1,62.3,47.3,83,81.7
		c18.5,30.6,37.5,60.8,59.9,88.8c47,58.6,105.3,97.7,181.8,105.3c14.4,1.4,29,1.5,43.5,2.1c22.6,1,39.1,17.9,39.4,40.6
		c0.2,10.7,0.2,21.5,0.1,32.2c-0.2,21.5-14.8,38.5-36.1,41.3c-40.9,5.4-81.8,4.8-122.2-4.2c-47.9-10.7-89.4-33.6-125.6-66.6
		c-39.5-36-69.8-79.3-96.5-125.1c-22.6-38.8-52.7-69.1-92.3-89.9c-30-15.7-62.3-23.7-95.5-28.6c-7.7-1.1-6.4,4.1-6.4,8.1
		c-0.1,28.5,0,56.9,0,85.4c0,66.8,0,133.6-0.1,200.4c0,19.3-5.4,24.2-24.5,24.1c-7.6,0-15.1,0-22.7-0.1c-14-0.3-20.1-6-20.6-20.2
		c-0.4-11.6-0.3-23.2-0.3-34.9c0-35.1,0.1-70.3,0.1-105.4c0-11.8,0-11.8-11.4-11.8c-53.5,0-107,0-160.5,0.1
		c-12.6,0-12.6,0.1-12.6,12.3c0,44.7,0,89.5,0,134.2c0,20.5-5.4,25.8-25.7,25.9c-6.7,0-13.4,0-20.1,0c-15.8-0.1-21.5-5.7-21.5-21.5
		C302.8,1001.6,302.9,904.9,302.9,808.1z M462.3,772.4c0,0,0-0.1,0-0.1c27,0,54-0.3,81,0.2c8.9,0.2,11.7-2.9,11.4-11.5
		c-0.6-16.5-0.5-33.1,0-49.6c0.2-7.8-2.8-9.8-10.2-9.8c-54.9,0.2-109.8,0.2-164.7-0.1c-7.9,0-10,2.7-9.8,10.1
		c0.4,16.8,0.5,33.7,0,50.5c-0.2,8,2.4,10.7,10.5,10.6C407.7,772.2,435,772.4,462.3,772.4z M461.4,894.3c0,0.1,0,0.1,0,0.2
		c27.9,0,55.8-0.1,83.6,0.1c7.1,0.1,9.9-2.3,9.7-9.6c-0.4-17.1-0.3-34.2-0.2-51.4c0-5.7-1.7-8.4-8-8.4
		c-56.1,0.2-112.1,0.2-168.2,0.1c-6.6,0-8.6,2.5-8.5,8.8c0.3,16.5,0.5,33.1,0.1,49.6c-0.2,7.8,2.1,10.9,10.3,10.7
		C407.4,894.1,434.4,894.3,461.4,894.3z"/>
	<path class="st1" d="M719.6,558.5c0.2-32.3,25.4-57,57.8-56.7c31.5,0.3,57.3,26.7,56.9,58.3c-0.3,31.3-26.7,56.5-58.7,56.2
		C744.2,615.9,719.4,590.4,719.6,558.5z"/>
	<path class="st1" d="M1097.9,836.7c0,14.2-5.5,23.2-16.1,28.9c-10.1,5.4-20.7,5.3-29.8-1.3c-14.6-10.5-28.3-22.3-42.4-33.5
		c-3.3-2.6-4.1-6.4-4.8-10c-5-24.4-9.9-48.9-14.7-73.4c-0.4-2.1-2.2-4.9,0.3-6.4c2.4-1.4,4.3,1.1,6,2.5c30,23.9,60,47.8,90,71.7
		C1093.7,821.3,1097.7,829.1,1097.9,836.7z"/>
</g>
</svg>
