<?xml version="1.0" encoding="utf-8"?>
<!-- Generator: Adobe Illustrator 27.9.0, SVG Export Plug-In . SVG Version: 6.00 Build 0)  -->
<svg version="1.1" id="Layer_1" xmlns="http://www.w3.org/2000/svg" xmlns:xlink="http://www.w3.org/1999/xlink" x="0px" y="0px"
	 viewBox="0 0 1500 1500" style="enable-background:new 0 0 1500 1500;" xml:space="preserve">
<style type="text/css">
	.st0{fill:#AFC6D3;}
	.st1{fill:#1E3464;}
</style>
<circle class="st0" cx="750" cy="750" r="733.3"/>
<g>
	<path class="st1" d="M848.6,673.3c-40.5,2.1-77.5-7.3-108.4-34.5c-41.9-37-57.5-83.6-42.1-137.4c15.5-54.3,53.1-86.7,108.8-97
		c9.3-1.7,14.5-4.9,18.3-14.1c20-48.3,64.9-78,115.9-77.6c50.4,0.4,94.6,31.1,114.2,80c3,7.4,7.6,10.2,14.9,11.2
		c67.9,9.7,117.6,67.8,116.7,136c-0.9,65.6-54,123.4-120.2,131.7c-18.9,2.4-37.8,1.2-56.7,1.5c-18.3,0.4-24.1,6-24.1,24.6
		c0,152.1,0,304.1,0,456.2c0,26.6-7,33.5-33.8,33.5c-10.1,0-20.3,0.1-30.4,0c-19.1-0.2-28-8.9-28-28c-0.1-50.5,0-100.9,0-151.4
		c0-101.6,0-203.2,0-304.8c0-4.1,0.2-8.2-0.2-12.2c-1-10.9-7.6-17.3-18.5-17.7C866.2,673,857.4,673.3,848.6,673.3z"/>
	<path class="st1" d="M571.3,715c60.6,0,121.1,0,181.7,0c22.8,0,31.9,9.2,31.9,32.1c0,46.7,0.1,93.5,0,140.2
		c0,21.9-9.7,31.7-31.5,31.7c-121.5,0-242.9,0-364.4,0c-22,0-31.3-9.5-31.3-31.8c0-47.1-0.1-94.1,0-141.2c0-21.6,9.4-31.1,30.9-31.1
		C449.5,715,510.4,715,571.3,715z"/>
	<path class="st1" d="M572,961c66,0,131.9-0.1,197.9,0c26.4,0,48,14.7,56,37.6c12.9,36.8-12.2,74.7-51.4,76.7
		c-9.3,0.5-12.3,3.3-12,12.4c0.6,20.3,0.3,40.6,0.1,60.9c-0.2,22-15,38.4-34.6,38.6c-19.9,0.3-35.1-16.4-35.3-38.9
		c-0.1-20.7-0.2-41.3,0.1-62c0.1-7.6-1.9-11-10.2-10.9c-74.1,0.2-148.1,0.2-222.2,0c-7.9,0-10.7,2.6-10.6,10.6c0.4,22,0.4,44,0,66
		c-0.3,16.2-10.2,29-24.9,33.5c-14.1,4.3-28.4-0.5-37.8-12.7c-5.4-7-7.2-15.1-7.1-23.8c0.1-20.7-0.2-41.3,0.1-62
		c0.1-7.8-1.7-11.3-10.6-11.7c-33.1-1.4-57.3-27-56.5-58.4c0.8-31.6,26.2-55.8,59.1-55.9C438.8,960.8,505.4,961,572,961z"/>
</g>
</svg>
