<?xml version="1.0" encoding="utf-8"?>
<!-- Generator: Adobe Illustrator 27.9.0, SVG Export Plug-In . SVG Version: 6.00 Build 0)  -->
<svg version="1.1" id="Layer_1" xmlns="http://www.w3.org/2000/svg" xmlns:xlink="http://www.w3.org/1999/xlink" x="0px" y="0px"
	 viewBox="0 0 1500 1500" style="enable-background:new 0 0 1500 1500;" xml:space="preserve">
<style type="text/css">
	.st0{fill:#AFC6D3;}
	.st1{fill:#1E3464;}
</style>
<circle class="st0" cx="750" cy="750" r="733.3"/>
<g>
	<path class="st1" d="M750.6,222.7c289.2-1.6,527.3,238.3,527,527.7c-0.3,289.1-238.7,527.9-529.2,527
		c-289-0.9-527.3-239.6-525.9-530.3C223.9,459.3,461.5,220.6,750.6,222.7z M749.5,1240.3c269.6-2,489.6-214.9,490.4-489.7
		c0.8-268.3-213.1-489.8-488.8-490.7c-269.4-0.9-490.7,214.3-491,489.6C259.7,1019.8,475.5,1237.1,749.5,1240.3z"/>
	<path class="st1" d="M540.2,438.6c0,31.4,0,62.9,0,94.3c0,30.2,10,55.9,34.3,74.9c26.9,21,36.5,49.1,35.1,82.1
		c-1.2,28.5-2.7,56.9-3.5,85.4c-1.9,62.8-3.3,125.6-5.1,188.4c-1.1,39.1-2.9,78.1-3.9,117.2c-0.6,23.2,13,36.4,34.8,35
		c19.3-1.2,30.6-17.2,28.9-38.9c-1.7-21.5-2.3-43-3.1-64.6c-1.8-48.2-3.1-96.4-5.1-144.5c-2.4-60.2-5.4-120.4-7.9-180.6
		c-1.3-30.9,7.7-57.8,32.8-77.5c25.9-20.3,36.7-47.1,36.6-79.5c-0.2-62.9,0.2-125.7-0.3-188.6c-0.1-11.3,3.5-14.4,14.4-14
		c25.6,0.9,22.2-2.6,22.4,22.1c0.2,18.3,0.3,36.6-0.1,54.8c-0.2,7.6,1.7,11.4,10.3,11.2c22-0.4,43.7,3,65,8.6
		c9.7,2.5,12-1.3,13.3-9.6c1.6-10.4,3.6-20.9,6.5-31.1c11-38.3,46.3-61,85.8-55.4c37.2,5.2,64.7,37.6,64.9,76.7
		c0.1,36.2,0.2,72.4-0.1,108.5c-0.1,7.5,2.4,13,7.2,18.7c62.5,73.9,88.8,159.1,78.6,255.3c-7.3,68.5-34.4,128.6-79.4,180.7
		c-4.4,5-6.3,10.2-6.3,16.8c0.2,33.3,0.2,66.5,0,99.8c-0.2,42.1-32.8,71.6-76.1,69.1c-37.1-2.1-66.8-38.9-62-77.5
		c1.2-9.3-1.5-9.9-9.2-7.4c-44.8,14.3-90.7,18.4-137.4,12.8c-8.3-1-13.2-0.4-13.9,10.6c-2.1,32.8-31.3,60.4-63.5,61.7
		c-37,1.4-66.8-21.5-73.5-55.6c-3.9-20.1,0.7-40.1,0.4-60.1c-0.1-9.4-2.8-15.1-10.5-20.8C474.5,960,429.3,884,418.2,789.1
		c-11.4-97.3,15.9-183.5,79.6-258.1c4.7-5.5,5.9-11.3,5.9-18.1c-0.1-57,0.2-114-0.3-171c-0.1-11.2,3.2-14.6,14.3-14.2
		c25.9,1,22.4-2.7,22.5,23.1C540.4,380.1,540.2,409.3,540.2,438.6z M770.9,454.1c-20.2-0.7-20.2-0.7-20.2,19.6
		c0,20.8-0.3,41.6,0.1,62.5c0.6,42-16,75.8-48.7,101.8c-12.6,10-19,22.9-19.5,38.7c-0.2,7.7-0.1,15.3,0.2,23
		c2.8,71.5,5.7,143,8.6,214.4c1.5,38.3,3.1,76.6,4.4,114.9c0.3,8.4,2.9,13.1,12.4,14.5c48.3,7.3,95.2,2,141.2-13.9
		c9.5-3.3,13-9,13.6-18.3c4.2-60,8.6-120.1,13.2-180.1c0.6-7.3-1.4-11-9.5-10.5c-8,0.5-16.1,0.1-24.1,0.1
		c-17.8-0.1-23.4-5.7-23.4-23.8c0-59.5,0.3-119.1-0.1-178.6c-0.3-48.7,3.2-97,10.2-145.1c1.1-7.4-1.6-10.1-7.8-11.5
		C805,458,788.2,454.6,770.9,454.1z M959.8,745.1c0-109.7,0-219.3,0-329c0-4.7,0.1-9.5-0.5-14.2c-3.1-22-18.6-36.6-39.3-37.2
		c-18.6-0.5-35.3,13.8-39.7,34.5c-12.9,61.2-20.8,123-22.9,185.6c-2.1,62.5-0.5,125-1.5,187.5c-0.1,8.9,2.5,12.7,11.7,12
		c7.6-0.6,15.3-0.2,23-0.1c19.4,0.1,25.4,5.6,24.4,24.8c-1.8,33.5-4.3,67-6.8,100.5c-2.5,34.2-5.4,68.4-8,102.6
		c-1.8,24-4.1,48.1-4.7,72.1c-0.6,23,20.7,38,41.9,30.8c14.8-5,22.2-17.4,22.2-37.6C959.8,966.6,959.8,855.9,959.8,745.1z
		 M509,576.4c-53.9,79.5-69.1,162.9-45.1,252.7c16,59.8,48.5,109.6,99,147.9c2.1-23.8,1.7-47.2,2.2-70.5
		c1.1-43.4,2.8-86.8,4.1-130.2c1-32.5,1.8-64.9,2.4-97.4c0.3-14.5-3.9-28-15.4-37.2C535.2,624.9,518.7,605.1,509,576.4z M997,912.7
		c70.4-99.9,61.9-242.7,0-324.4C997,696.2,997,803.4,997,912.7z"/>
	<path class="st1" d="M295.1,700.5c8.3-74,33.5-144,76.5-207.5c4.4-6.5,8-6.4,14-2.2c21.7,15.2,21.8,14.9,7.9,37.4
		c-32.5,52.7-53.2,109.5-60.2,171.1c-0.4,3.6-1.4,7.2-1.6,10.8c-0.5,5.7-3.8,7.4-8.9,7c-7.3-0.6-14.5-1.3-21.8-1.9
		C292,714.3,295.4,707.7,295.1,700.5z"/>
	<path class="st1" d="M610.4,425.9c0,28.1-0.2,56.2,0.1,84.3c0.1,8.5-1.9,12.6-11.5,12.4c-29.8-0.8-25.1,3.4-25.2-24.7
		c-0.3-52.2,0.2-104.4-0.3-156.6c-0.1-10.7,3.3-13.9,13.8-13.5c26.4,0.9,22.8-2.8,23,22.6C610.6,375.5,610.4,400.7,610.4,425.9z"/>
	<path class="st1" d="M644,424.1c0-28.1,0.3-56.2-0.2-84.3c-0.1-9,2.8-12.2,11.9-12c29.1,0.7,24.7-3.2,24.8,24
		c0.2,52.6-0.1,105.2,0.3,157.7c0.1,10-2.9,13.4-13,13.1c-27.6-0.9-23.5,3.1-23.7-24.1C643.8,473.8,644,448.9,644,424.1z"/>
	<path class="st1" d="M429.9,475.7c-3.7,0-25.6-18.6-25.7-21.7c0-1.6,0.7-3.6,1.8-4.9c7.9-8.6,15.9-17,23.9-25.5
		c2.4-2.6,5.1-2.4,7.7-0.1c0.5,0.5,1.2,0.9,1.6,1.5c5.5,7.9,19.3,13.7,17.2,22.2c-2.8,11.3-15.5,18.5-24.1,27.4
		C431.7,475.3,430.4,475.5,429.9,475.7z"/>
</g>
</svg>
