<?xml version="1.0" encoding="utf-8"?>
<!-- Generator: Adobe Illustrator 27.9.0, SVG Export Plug-In . SVG Version: 6.00 Build 0)  -->
<svg version="1.1" id="Layer_1" xmlns="http://www.w3.org/2000/svg" xmlns:xlink="http://www.w3.org/1999/xlink" x="0px" y="0px"
	 viewBox="0 0 1500 1500" style="enable-background:new 0 0 1500 1500;" xml:space="preserve">
<style type="text/css">
	.st0{fill:#AFC6D3;}
	.st1{fill:#1E3464;}
</style>
<circle class="st0" cx="750" cy="750" r="733.3"/>
<g>
	<path class="st1" d="M749,1146.5c-120.4,0-240.8,0-361.2,0c-19,0-21.7-2.6-21.7-21.3c0-134.9-0.1-269.9,0.2-404.8
		c0-8.7-2.5-13.1-10.5-17.2c-32.7-16.7-46.6-45.1-47-80.8c-0.1-11.8,0-23.6,0-35.4c0-5.2,0.8-10.2,3.1-15
		c32.2-68.4,64.5-136.8,96.4-205.3c4.4-9.5,10.6-13.2,21.1-13.2c213.6,0.2,427.2,0.2,640.8,0c11,0,17.1,4,21.6,13.8
		c31.5,67.7,63.5,135.3,95.2,202.9c1.3,2.7,2.8,5.6,3,8.5c1.3,24.1,3.2,48.5-3,72.2c-6.3,24.1-21.2,42.2-43.8,52.7
		c-8.2,3.8-9.8,8.7-9.8,16.7c0.2,134.9,0.1,269.9,0.1,404.8c0,18.7-2.7,21.4-21.5,21.4C991,1146.5,870,1146.5,749,1146.5z
		 M884.4,1119.9c70.8,0,141.6-0.1,212.4,0.2c8,0,10.3-2.4,10.3-10.3c-0.2-129.2-0.2-258.4-0.1-387.5c0-6.6-1.5-9.4-8.9-10
		c-23.7-1.9-43.4-12.7-58.3-31.2c-4.1-5.1-6-5.6-10.4-0.3c-36,42.8-96.2,43-131.7,0.3c-4.8-5.8-6.5-5.1-10.9,0.2
		c-35.3,42.2-95.7,42.2-131.3,0.2c-4.2-4.9-6.4-5.7-11-0.3c-36.6,42.9-96.8,42.4-132.4-1.1c-3.8-4.7-5.3-4.6-9.2,0
		c-36.9,43.8-95.8,44-132.9,0.3c-4.3-5-6.2-4.6-9.9,0.2c-15,19.1-34.8,29.7-58.9,31.7c-6.9,0.6-8.5,3.1-8.5,9.5
		c0.1,129.8,0.1,259.6,0,389.3c0,6.7,2.1,9.1,8.9,8.9c18.1-0.3,36.3-0.1,54.5-0.1c12,0,12.1,0,12.1-11.9c0-64.4,0-128.9,0-193.3
		c0-17.1,4.3-21.4,21.5-21.4c50.5,0,101,0,151.6,0c17.8,0,21.9,4.2,21.9,21.9c0,64.4,0.2,128.9-0.2,193.3
		c-0.1,9.3,2.8,11.7,11.9,11.6C744.6,1119.7,814.5,1119.9,884.4,1119.9z M635.3,1021.5c0-30.2-0.1-60.5,0.1-90.7
		c0-6.7-1.7-9.9-9.2-9.9c-40.5,0.2-81.1,0.2-121.6,0c-6.8,0-8.9,2.6-8.9,9.2c0.1,60.2,0.2,120.4,0,180.6c0,7.2,2.7,9.3,9.6,9.3
		c39.9-0.2,79.9-0.3,119.8,0c8,0.1,10.5-2.6,10.4-10.4C635.1,1080.2,635.3,1050.9,635.3,1021.5z M958.9,566.3
		c16.9,0,33.9-0.2,50.8,0.1c5.9,0.1,7.5-1.9,6.2-7.5c-13.1-57.1-26.2-114.2-39.1-171.3c-1.2-5.5-3.7-7.4-9.2-7.4
		c-30.5,0.2-61,0.2-91.6,0c-6.8,0-8.2,2.6-7,8.9c10.1,55.8,20.2,111.7,29.9,167.6c1.3,7.7,4.7,9.9,12,9.7
		C926.9,566,942.9,566.3,958.9,566.3z M539.8,566.3c16.6,0,33.2-0.2,49.9,0.1c6.6,0.1,9.7-2,10.9-8.9
		c9.7-55.9,19.7-111.8,29.9-167.6c1.3-7.3-0.3-9.8-7.8-9.7c-29.9,0.3-59.8,0.3-89.8,0c-6.4-0.1-8.9,2.2-10.3,8.4
		c-12.7,56.6-25.6,113.1-38.7,169.6c-1.5,6.6,0.4,8.5,7,8.3C507.2,566.1,523.5,566.3,539.8,566.3z M736.5,473.7
		c0-27.5-0.2-55,0.1-82.5c0.1-7.9-1.6-11.4-10.5-11.1c-19,0.6-38.1,0.5-57.1,0c-7.3-0.2-10.1,2.6-11.3,9.5
		c-9.7,55.6-19.4,111.3-29.7,166.8c-1.5,8.2,0.6,10,8.3,10c29.6-0.3,59.3-0.4,88.9,0.1c8.5,0.1,11.6-2.2,11.4-11.1
		C736.1,528.2,736.5,500.9,736.5,473.7z M763.1,472.8c0,28.1,0.1,56.2-0.1,84.4c-0.1,6.3,1.5,9.4,8.5,9.3
		c31.1-0.3,62.3-0.2,93.4-0.1c5.8,0,8-1.6,6.9-8.1c-10.2-56.5-20.2-113-30.2-169.5c-1.1-6-3.5-8.8-10.1-8.7
		c-19.3,0.4-38.7,0.6-58-0.1c-8.7-0.3-10.7,3-10.6,11C763.4,418.3,763.1,445.5,763.1,472.8z M399.6,566.3c15.4,0,30.8-0.3,46.2,0.1
		c6.4,0.2,9.3-2.3,10.5-8.4c2.1-10.7,4.7-21.2,7.1-31.8c10.3-45.3,20.5-90.7,31.1-135.9c1.9-8.2,0-10.6-8.4-10.2
		c-14.8,0.6-29.6,0.5-44.4,0c-7-0.2-11,2.1-13.9,8.6c-9.8,21.7-20.2,43.2-30.4,64.8c-16.2,34.4-32.4,68.9-48.5,103.3
		c-4.2,8.9-3.8,9.3,6.3,9.4C370,566.4,384.8,566.3,399.6,566.3z M1099.2,566.3c16,0,32-0.1,48,0c5.7,0,7.1-2,4.6-7.1
		c-5.3-11.2-10.5-22.4-15.8-33.6c-21.5-45.6-42.9-91.3-64.4-136.9c-2.1-4.4-3.9-8.6-10.2-8.5c-17.2,0.3-34.4,0.2-51.7,0
		c-5.1-0.1-6.4,2-5.3,6.6c1.3,5.3,2.4,10.6,3.7,15.9c11.5,50.6,23.2,101.2,34.2,151.9c2,9.3,5.9,12.4,15.2,11.9
		C1071.4,565.8,1085.3,566.3,1099.2,566.3z M679,594.5c-16,0-32.1,0.3-48.1-0.1c-6.9-0.2-10,1.8-9.6,9.2c0.5,9.4,0,18.8,0.1,28.1
		c0.4,27,23,51.6,49.4,54.2c30.9,3,58.1-15.9,63.8-44.3c2.6-12.9,1.2-25.9,1.8-38.9c0.3-6.4-2.4-8.4-8.5-8.3
		C711.7,594.7,695.3,594.5,679,594.5z M820.7,594.5c-16.3,0-32.7,0.2-49-0.1c-6-0.1-9,1.6-8.7,8.2c0.4,9.1-0.1,18.2,0.2,27.2
		c1,29.2,23.3,53.8,50.8,56.2c31.4,2.7,57.4-15.9,63.2-46.1c2.4-12.2,0.3-24.8,0.9-37.1c0.3-6.4-2.3-8.5-8.5-8.4
		C853.4,594.7,837.1,594.5,820.7,594.5z M394,594.5c-15.7,0-31.5,0.3-47.2-0.1c-7.7-0.2-11.2,1.8-10.6,10.1c0.6,8.4,0,16.9,0.2,25.4
		c0.6,29.9,22.3,53,52.5,56.1c28.1,2.9,53.9-15.6,60.8-43.5c3.2-13.1,1-26.5,1.8-39.8c0.4-6.5-2.4-8.4-8.5-8.3
		C426.6,594.7,410.3,594.5,394,594.5z M1106.5,594.5c-16.6,0-33.3,0.2-49.9-0.1c-6.2-0.1-8.7,2-8.5,8.4c0.4,9.4-0.1,18.8,0.1,28.1
		c0.7,27.5,23.1,52.2,49.9,55c30.3,3.2,56.7-15,63.5-43.6c3-12.6,0.9-25.3,1.8-38c0.5-7.4-2-10.2-9.7-10
		C1137.9,594.8,1122.2,594.5,1106.5,594.5z M537.1,594.5c-16,0-32,0.3-48-0.1c-7.7-0.2-10.2,2.7-9.9,10c0.4,9-0.1,18.1,0.2,27.2
		c1,30.1,26.8,54.4,57.1,54.3c30.8-0.1,56.4-25.2,56.7-55.6c0.1-8.5-0.5-17,0.2-25.4c0.7-8.7-3-10.9-11-10.6
		C567.3,594.9,552.2,594.5,537.1,594.5z M963.5,594.5c-15.1,0-30.2,0.5-45.3-0.2c-8.9-0.4-12.9,1.9-12,11.5
		c0.8,8.1,0.1,16.3,0.2,24.5c0.3,29.9,25.2,54.7,55.8,55.6c30.2,0.8,56.7-23.5,58-53.3c0.4-9.4-0.2-18.7,0.3-28.1
		c0.3-7.3-2.2-10.3-9.8-10.1C994.9,594.8,979.2,594.5,963.5,594.5z"/>
	<path class="st1" d="M882.8,995.7c-46.6,0-93.1,0-139.7,0c-3,0-6.1,0.2-9.1-0.2c-7.5-1-12.4-5.3-12.6-13.1
		c-0.2-7.3,4-11.7,11.1-13.4c13.3-3.3,13.3-3.3,13.3-17.3c0-40.8,0-81.7,0-122.5c0-21,7.4-28.4,28.5-28.4
		c72.6-0.1,145.2-0.1,217.7,0c21.1,0,28.5,7.4,28.5,28.4c0,42,0.2,84.1-0.1,126.1c-0.1,8.1,1.1,13,10.8,13.4
		c9,0.4,14.2,6.5,13.9,13.7c-0.3,8-6.3,13.2-16.4,13.2C980.2,995.7,931.5,995.7,882.8,995.7z M882.3,967.9c33,0,66-0.2,98.9,0.1
		c8.3,0.1,11.8-2,11.7-11.1c-0.4-39.3-0.3-78.7,0-118c0.1-7.8-2.3-10.5-10.3-10.5c-66.3,0.3-132.5,0.3-198.8,0
		c-8.1,0-10.4,2.7-10.3,10.5c0.3,39.3,0.4,78.7,0,118c-0.1,9.1,3.4,11.2,11.7,11.1C817.6,967.7,850,967.9,882.3,967.9z"/>
</g>
</svg>
