<?xml version="1.0" encoding="utf-8"?>
<!-- Generator: Adobe Illustrator 27.9.0, SVG Export Plug-In . SVG Version: 6.00 Build 0)  -->
<svg version="1.1" id="Layer_1" xmlns="http://www.w3.org/2000/svg" xmlns:xlink="http://www.w3.org/1999/xlink" x="0px" y="0px"
	 viewBox="0 0 1500 1500" style="enable-background:new 0 0 1500 1500;" xml:space="preserve">
<style type="text/css">
	.st0{fill:#AFC6D3;}
	.st1{fill:#1E3464;}
</style>
<circle class="st0" cx="750" cy="750" r="733.3"/>
<g>
	<path class="st1" d="M770.8,1187.2c-109,0-217.9,0-326.9,0c-14.4,0-21.7-4.3-22-13c-0.3-9.8,7.3-14.9,22.7-14.9
		c12.9,0,25.8-0.3,38.7,0.1c6.5,0.2,9.3-2.5,10.3-8.7c2.5-15.9,5.2-31.8,8-47.7c0.7-4.2,0.1-7.9-3.8-10.1
		c-41.8-23.5-50.3-62.5-49.4-105.9c0.3-12.9,0.7-25.8,1.6-38.6c0.8-12.1,7-21.6,17.4-27.4c7.3-4.1,9.7-9.5,9.4-17.3
		c-0.5-14.5-1.5-29-0.7-43.5c1.9-35.1,26.6-57.5,64.2-56.4c58.3,1.6,116.7,0.6,175,1c20.9,0.2,20.9,0,20.9-20.6
		c0-56.7,0-113.5-0.1-170.2c0-13.4,0-13.5-13.4-13.5c-126.7,0-253.4,0-380.1,0c-27.9,0-30.1-2.2-30.1-30.2c0-11,0.5-21.9-0.1-32.9
		c-0.6-11,4.2-17.3,14.1-21.4c36.3-15,72.5-30.4,108.8-45.6c93.4-39.1,186.7-78.1,280.1-117c12.6-5.2,23.2-10.5,21.3-27.5
		c-0.8-7.6,5.2-13.3,13.7-13.2c7.9,0.1,13.9,5.7,13,12.9c-2.4,18.5,9.5,23,23.1,28.7c127.3,53,254.5,106.4,381.7,159.8
		c17.8,7.5,19.7,10.6,19.6,29.5c-0.1,13.2-0.3,26.4,0,39.7c0.2,9.5-4.4,14.5-13.2,16.1c-5,0.9-10.2,1.2-15.4,1.2
		c-126.7,0-253.4,0-380.1,0c-14.9,0-15,0-15,14.8c0,59,0.1,118-0.2,177c0,9.1,2.5,14.8,11.3,18.8c19.5,8.9,28.9,25,29.4,46.2
		c0.4,15.5,0.4,30.9,0.2,46.4c-0.1,7.8,2.2,13.4,9.5,17.3c10,5.4,16.3,14.4,16.9,25.6c1.3,25.7,2.1,51.6-0.4,77.3
		c-2.7,27.8-16.9,49.2-40.1,64.1c-8.8,5.7-12.4,11.3-9.7,22c3.2,12.4,4.7,25.3,6.4,38.1c1,7.6,3.7,11.2,12.2,11.1
		c35.1-0.4,70.3-0.4,105.4,0c8.4,0.1,10.8-2.8,11.6-11c2.2-22.4,5.7-44.7,8.5-67.1c1.4-11.2,1.4-22.5-0.6-33.7
		c-3.4-19-6.7-38.1-9.8-57.2c-2.5-15.4,2.7-21.6,18.4-22.3c9-0.4,18.1-0.2,27.1-0.1c5.7,0.1,7.9-2.4,8.2-8.1
		c1-17.4,1.3-17.7-14.2-24.7c-21.1-9.5-35.6-25.7-45.2-46c-32.2-68.3-32.1-136.5,4.2-203.3c15.5-28.6,39.2-46.1,73.2-45.2
		c27.6,0.7,45.4,18.1,60.6,38.4c18.7,25,25.7,54.5,29.7,84.8c5.7,42.7-0.9,83.4-19.7,122.2c-11.1,22.9-27.3,40.4-51.2,50.3
		c-8.5,3.5-13.4,21.2-8.6,28.8c1.9,3,4.9,2.7,7.8,2.7c8.4,0.1,16.8-0.1,25.1,0.1c17.5,0.5,22.4,6.5,19.5,23.9c-2.1,13-4,26.2-7,39
		c-6.3,26.7-3.3,53.1,0.5,79.7c1.8,12.8,4,25.5,4.8,38.3c0.5,8.7,4.2,10.8,12.1,10.5c12.6-0.5,25.1-0.1,37.7-0.1
		c4.2,0,8.4,0.2,12.4,1.7c6.2,2.4,9.3,7.3,8.7,13.6c-0.6,6.6-4.6,11.3-11.6,12.4c-3.5,0.5-7.1,0.3-10.6,0.3
		C988.1,1187.2,879.4,1187.2,770.8,1187.2z M750.1,571.1c46.4,0,92.8,0,139.2-0.1c3.6,0,8,1.4,10.3-3.1c3.3-6.4-0.2-31.3-5.3-36.8
		c-9.5-10.5-19.1-21-28.7-31.4c-36.7-39.8-73.5-79.5-110.3-119.2c-3.8-4.1-6.2-6-11.3-0.4c-42.8,46.9-85.6,93.7-129.5,139.6
		c-11.3,11.8-15.7,24-15.3,39.7c0.3,9.5,3.4,11.9,12.4,11.9C657.9,570.9,704,571.1,750.1,571.1z M641.3,832.8
		C641.3,832.8,641.3,832.8,641.3,832.8c-36.1,0.1-72.2-0.1-108.2,0.1c-18.6,0.1-28,9.5-28.4,28c-0.3,15.5,0,30.9-0.1,46.4
		c-0.1,5.3,1.6,9.2,6.3,12.1c14.3,9,20.8,22.5,20.8,39.1c0,7.2,2.8,9.6,9.8,9.5c66-0.1,132.1-0.2,198.1,0c7.4,0,10.3-2.5,10.2-10.1
		c-0.2-15.9,6.3-28.8,19.6-37.8c5.4-3.7,7.6-8.2,7.5-14.6c-0.2-13.8,0.1-27.7-0.1-41.6c-0.2-22.3-9-31.1-31.1-31.2
		C710.9,832.7,676.1,832.8,641.3,832.8z M688.9,394.7c-4.2,1.7-8.3,3.2-12.5,5c-106.7,44.7-213.4,89.4-320.1,134.1
		c-15.9,6.7-15.9,6.5-15.9,23.8c0,13.6,0,13.6,14.1,13.6c62.2,0,124.4,0.1,186.6-0.1c9.5,0,21.6,4.2,28.1-2.1
		c6.9-6.7,2.4-19,2.3-28.8c-0.1-11.6,3.9-20.8,12.8-27.9c7.6-6.1,14-13.3,20.4-20.5c14.9-16.9,30.3-33.3,45.2-50.2
		C663.4,426.5,678,412.4,688.9,394.7z M809.5,394.1c-0.4,0.6-0.7,1.2-1.1,1.7c1,1.2,1.9,2.5,2.9,3.6c31.4,34.1,62.2,68.8,94.7,101.9
		c15.9,16.2,25.4,32.9,22.6,56.3c-1.6,13.4-0.2,13.6,13.9,13.6c58.9,0,117.9,0,176.8,0c10.6,0,21.3,0,31.9-0.1
		c2.8,0,5.9,0.3,7.7-2.8c5.2-8.6-0.5-27.8-9.6-31.6c-64.9-27.4-129.9-54.8-194.9-82.2c-3.1-1.3-5.8-3.1-8.9,1.4
		c-2.6,3.9-7.9,3.5-7.2-2.5c0.7-6.3-3.2-7-6.9-8.5c-20.2-8.5-40.4-17-60.6-25.4C850.4,411.1,829.9,402.6,809.5,394.1z M968.3,855.5
		C968.3,855.5,968.3,855.5,968.3,855.5c0.1-16.1-0.2-32.2,0.1-48.3c0.2-10.6,5.4-16,14.2-15.8c8.3,0.2,13.1,5.4,13.5,15.5
		c0.3,7.1,0.3,14.2,0.1,21.3c-0.2,6.1,0.3,9.3,7.7,5.4c6.4-3.4,12.7-1.4,16.9,4.7c4.3,6.3,2.9,12.2-2.1,17.5
		c-2.7,2.8-5.2,5.8-8.2,8.2c-12.4,9.8-15.5,22.9-14.4,37.9c0.5,6.9,2.8,8,8.2,4.5c8.3-5.3,14.9-12.4,20.1-20.6
		c26.9-41.8,29.9-87.6,21.7-134.9c-4.7-26.8-15.4-51.2-35.6-70.4c-16.6-15.8-37.4-16.4-54.9-1.8c-8.5,7.1-16.1,15.2-20.8,25.2
		c-26.1,55.5-28.6,111.7-2.3,167.8c6.3,13.3,14.9,25.6,27.4,34.5c2,1.4,4.3,3.9,6.8,2.8c2.8-1.3,1.5-4.6,1.5-7
		C968.4,886.4,968.3,871,968.3,855.5z M640.1,1077.7C640.1,1077.8,640.1,1077.8,640.1,1077.7c15.5,0,30.9,0,46.4,0
		c15.8,0,31.6,0.2,47.4-0.1c33.2-0.6,59.7-19.2,67.1-48.3c6.3-25,3.2-50.7,2.4-76c-0.3-9.8-12-14.4-19.6-8.9
		c-5,3.6-5.9,9.1-5.9,14.6c-0.1,14.8-0.1,29.7-0.1,44.5c-0.2,31.2-16.6,47.8-47.9,47.8c-59.3,0.1-118.6,0.1-177.9,0
		c-31.4-0.1-47.7-16.3-48-47.6c-0.1-15.1,0.2-30.3-0.3-45.4c-0.4-10.6-5.5-16.3-13-16.2c-8.3,0.1-12.9,5.9-13,16.9
		c-0.1,15.5-0.2,30.9,0.1,46.4c0.9,46.2,27.3,72.1,73.5,72.4C580.8,1077.9,610.4,1077.7,640.1,1077.7z M640.8,1159.1
		c36.7,0,73.5-0.1,110.2,0.1c6.4,0,9.8-1.1,8.3-8.5c-2.4-12.7-4.3-25.4-6.4-38.1c-0.9-5.6-4.5-7.1-9.7-7.1
		c-68.3,0.1-136.7,0.1-205,0c-6.5,0-9.2,3-10.1,9c-1.8,11.8-3.6,23.6-5.9,35.3c-1.4,7.2,0.6,9.6,8.3,9.5
		C567.3,1158.9,604,1159.1,640.8,1159.1z M640.8,997.3c0-0.1,0-0.1,0-0.2c-32.8,0-65.7,0.2-98.5-0.1c-7.9-0.1-11.1,2.6-10.5,10.7
		c0.9,11.1,6.4,15.6,21,15.6c48.3,0.1,96.6,0.2,144.9,0.1c13.5,0,27-0.4,40.4-1.5c8.6-0.7,12.3-7.8,11.6-17.9
		c-0.7-9-7.3-6.6-12.3-6.6C705.2,997.2,673,997.3,640.8,997.3z M982.2,997.2c-9.6,0-19.3,0.3-28.9-0.1c-6.4-0.3-8.7,1.9-7.5,8.4
		c2.2,12,4.1,24,6,36.1c1,6.2,4.5,8.9,10.5,8.9c13.8,0,27.6,0,41.4,0.1c5,0.1,7.8-2.1,8.6-7c2.1-13,4.1-26,6.4-38.9
		c1-5.6-1.2-7.5-6.7-7.4C1002.1,997.4,992.2,997.2,982.2,997.2z M981.7,1159c7.1,0,14.2,0,21.2,0c17.9,0,17.6,0,15.8-17.6
		c-0.6-6.2-2.8-8.2-9-8c-15.4,0.6-30.9,0.8-46.3,0.8c-21,0-15.3-1.5-18.7,16.6c-1.2,6.1,1.2,8.2,7,8.1
		C961.8,1158.9,971.7,1159,981.7,1159z M982.6,1104.6C982.6,1104.7,982.6,1104.7,982.6,1104.6c6.1,0.1,12.2,0.1,18.4,0.1
		c13.2,0,12.9,0,11.7-13.5c-0.8-8.8-3.8-13.4-13.7-12.5c-9.9,0.9-20,0.2-30,0.2c-15.2,0.1-17.9,3.2-17.4,18.8
		c0.2,4.8,1.9,7.2,6.8,7.1C966.4,1104.6,974.5,1104.6,982.6,1104.6z"/>
</g>
</svg>
