<?xml version="1.0" encoding="utf-8"?>
<!-- Generator: Adobe Illustrator 27.9.0, SVG Export Plug-In . SVG Version: 6.00 Build 0)  -->
<svg version="1.1" id="Layer_1" xmlns="http://www.w3.org/2000/svg" xmlns:xlink="http://www.w3.org/1999/xlink" x="0px" y="0px"
	 viewBox="0 0 1500 1500" style="enable-background:new 0 0 1500 1500;" xml:space="preserve">
<style type="text/css">
	.st0{fill:#AFC6D3;}
	.st1{fill:#1E3464;}
</style>
<circle class="st0" cx="750" cy="750" r="733.3"/>
<g>
	<path class="st1" d="M1249.9,857c-4.2,24.3-8,48.7-16.8,71.9c-43,113.3-123.7,182.6-242.4,207.2c-9.2,1.9-17.1,4.8-24.6,10.5
		c-62.9,48.2-133.3,79-211.9,90.3c-46.2,6.6-92.6,6.1-139.1,3.4c-44.1-2.5-86.7-12-128.1-27.5c-40.8-15.2-78.4-36.3-113.3-62.1
		c-16.5-12.2-32.9-24.4-49.1-36.9c-28.2-21.7-30.6-56.7-4.7-81c39.6-37.1,78.7-74.9,127.1-101c7.2-3.9,5.4-6.2-0.7-9.2
		c-75.7-37.6-131.2-94.8-165.7-172c-28.6-63.9-37.1-130.8-25.5-200c12.3-73.4,44.6-137,97-189.5c55.6-55.8,123.1-89.3,201.5-100
		c87.2-12,167.5,7.2,240.6,55.1C860.5,359.8,906.4,420,932,495.2c2.9,8.6,6.8,12,16.3,12.6c139.3,7.8,253.6,99.9,291.3,234.2
		c5,17.8,7.1,36.3,10.3,54.5C1249.9,816.6,1249.9,836.8,1249.9,857z M667.5,1206c1.6,0,3.3,0,4.9,0c53.1,1.6,104.7-6.1,155.2-23.2
		c61.2-20.8,111.8-58.9,161.8-97.8c9.5-7.4,9.6-17.6,0.8-26.1c-22.6-21.5-45-43.4-69.7-62.4C831.7,928,731.1,900,619.7,912.1
		c-68.6,7.4-130.7,32.2-187.5,71.2c-32,22-59.4,49.4-88,75.4c-9.7,8.8-8.8,18.9,2,27.2c16.5,12.7,33.1,25.2,49.9,37.5
		c39.9,29.3,83.3,51.6,130.8,65.7C572.9,1202.7,619.8,1207.7,667.5,1206z M289.7,560.7c-1.3,5.1,0.7,6.9,4.7,7.3
		c4.8,0.5,9.7,1.2,14.5,1.5c23.1,1.5,45.8,5,68.2,10.8c52.8,13.7,99.9,38.2,141.1,74.1c4.8,4.2,7.8,3.9,12.1-0.6
		c12.4-12.9,24.9-25.7,37.9-37.9c6.2-5.8,6.3-9.5,0.1-15.6c-33.4-32.8-66.3-66-99.4-99.1c-31.5-31.5-63.1-62.8-94.3-94.6
		c-6.4-6.5-9.9-7.9-16.2,0.2c-10.9,14.2-21.7,28.4-30.6,44C308.3,485.4,295,522.2,289.7,560.7z M555.1,297c-1,0.1-1.9,0.3-2.9,0.4
		c-58.7,8.9-110.5,32.9-155.8,71.2c-4.6,3.9-3.7,6.5,0,10.1c13.2,13,26.2,26.2,39.4,39.3c52.6,52.7,105.4,105.2,157.8,158.1
		c5.7,5.8,9,6,14.5,0c11-11.9,22.8-23.1,34.3-34.6c9.8-9.8,9.7-9.7,0.7-20.6c-36.8-44-61-94.1-73.5-150c-4.9-22-6.5-44.3-8.8-66.6
		C560.5,300.7,561.7,295.8,555.1,297z M614.1,293.7c-1.3,0-2.6,0-3.9,0c-13.7-0.1-14-0.1-13.3,13.2c0.9,16.5,2.7,33,5.9,49.2
		c10.4,53.4,32.9,101,67.9,142.7c4,4.8,7,7.7,13,1.7c40.2-40.6,80.7-81,121.2-121.3c4.3-4.3,4.3-6.8-0.3-10.7
		C749.5,322.1,685.9,297.6,614.1,293.7z M286.8,621.9c0,3.6-0.2,7.2,0.1,10.7c0.3,3.9,1.1,7.7,1.5,11.6
		c7,63.2,31.6,118.7,72.2,167.4c4.2,5.1,6.7,5.3,11.3,0.6c40.2-40.7,80.5-81.2,121-121.6c5.1-5.1,4.4-8-0.8-12.3
		c-18.6-15.3-38.6-28.7-60.1-39.6c-39.6-20.1-81.8-30.6-126.1-34C286.3,603.3,286.4,602.3,286.8,621.9z M915.8,683.2
		c0-7.1-0.6-14.3,0.1-21.4c0.8-8.6-2.8-13.6-9.8-18.3c-26.1-17.7-51.7-36-77.5-54c-5.7-4-11-8.2-12.2-15.6c-0.8-4.9-3.5-3.5-6.3-2.2
		c-37,17.6-67.8,43.1-94,74.4c-3.9,4.6-2.9,7.3,2.3,9.3c10.3,3.9,15.3,12.1,19.1,22c7.5,19.7,15.7,39.2,23.3,58.9
		c2.2,5.6,5.5,9,11.1,11.2c17.3,6.6,34.5,13.5,51.5,20.7c6.2,2.6,10.9,1.6,16.2-2.1c16.3-11.3,32.2-23.3,49.6-32.8
		C909.9,722.1,922.8,708.4,915.8,683.2z M600.1,873.2c-0.1-0.9-0.2-1.5-0.2-2.2c-8.6-58.7-32.9-110.3-70.7-155.7
		c-3.7-4.4-6.6-3.9-10.4-0.1c-40.8,40.9-81.7,81.8-122.6,122.6c-3.8,3.8-4.1,6.4,0.4,10.2c28.9,24.3,60.7,43.3,96.3,56
		c4.5,1.6,8.8,1.7,13.2-0.1c28.6-10.9,57.8-19.5,88.1-24.1C598.2,879.2,601.1,877.9,600.1,873.2z M1115.3,940.2
		c16.2,0,32.5,0.1,48.7,0c6.5,0,12.5,1.2,16.5,6.7c3.4,4.6,5,3.4,7.2-1c7.3-14.6,12.6-29.9,17.1-45.5c5-17.5,7.8-35.5,9.3-53.6
		c0.3-3,2.2-9.7-5.1-6.7c-9.9,4-17.5,0.3-25.4-5c-25.6-17.2-51.4-34.1-76.9-51.5c-5.8-3.9-10.7-4.6-17-1.4
		c-10.7,5.5-21.7,10.4-32.7,15.2c-5.1,2.2-8.3,5.4-9.9,11c-8.1,29.1-16.4,58.1-24.9,87.1c-1.6,5.5-0.4,9.1,3.6,12.9
		c8.9,8.5,17.7,17.2,26.2,26.2c4.2,4.4,8.8,5.9,14.7,5.8C1082.8,940,1099,940.2,1115.3,940.2z M1055.4,570.9
		c-2.8-0.8-3.9,0.4-4.2,2.2c-1.8,9.7-9.4,14.3-16.6,19.3c-25,17.5-49.9,35.1-75.1,52.4c-5.8,3.9-8,8.5-7.9,15.4
		c0.4,15.6,0.3,31.2,0,46.8c-0.1,5.7,1.5,9.7,6.5,13c22.6,14.7,45,29.7,67.2,44.9c5.2,3.6,9.8,3.9,15.3,1.2
		c11.4-5.6,22.7-11.2,34.5-15.9c7.8-3.1,11.4-8.4,13.5-16.2c8.4-30.7,17.3-61.2,26-91.8c1.7-6,3.5-12.2,9.5-15.2
		c6.4-3.2,4-5.7,0.4-9c-19.9-18.5-42-33.7-66.4-45.5C1057,571.7,1055.9,571.1,1055.4,570.9z M932.9,889.7c15.3,0,30.6-0.2,45.8,0.1
		c5.8,0.1,8.9-2.2,10.5-7.8c7-25,14.1-50,21.4-75c1.7-5.9,0.3-9.7-4.9-13.1c-22.3-14.6-44.4-29.4-66.5-44.4
		c-4.2-2.8-7.4-2.6-11.4,0.1c-22.4,15.1-44.8,30.1-67.3,44.9c-4.6,3-5.7,6.1-4.1,11.3c7.4,25.2,14.7,50.5,21.6,75.9
		c1.7,6.2,5,8.2,11.2,8C903.7,889.5,918.3,889.7,932.9,889.7z M898.4,505.7c-0.3-1.1-0.5-2-0.8-3c-13.3-36.3-32.1-69.4-57.2-98.9
		c-3.8-4.4-6.4-3.9-10.2-0.1c-40.8,40.9-81.6,81.8-122.6,122.5c-4,3.9-4.1,6.3,0.4,9.9c10.8,8.8,22,17.1,33.5,25
		c6.1,4.2,10.5,3.9,16.4-0.2c23.4-16.1,48.7-28.5,75.6-37.5c18.8-6.3,38.1-10.6,57.7-13.7C893.8,509.5,898.2,510.8,898.4,505.7z
		 M654.2,854.3c2.3,21.5-0.1,19.5,18.3,19.5c58.3,0,114,12.3,167.8,34.5c2.3,1,4.9,3.4,7.2,1.6c2.6-1.9,0.3-4.9-0.3-7.2
		c-8.4-30-17.1-60-25.5-90c-1.6-5.8-4.7-9.5-10.4-11.7c-16.1-6.1-32.1-12.4-47.9-19.2c-6.4-2.8-10.6-1.6-15.4,3.3
		c-20.5,20.9-41.5,41.3-61.9,62.2C677.1,856.6,668.1,862.8,654.2,854.3z M1108.9,975.9c-12.3,0-24.7,0.4-37-0.1
		c-7.8-0.3-12.5,2.3-15.9,9.6c-8.2,17.7-17.1,35-26.1,52.3c-3.1,5.9-3.9,11.1-0.8,17.4c3.8,7.8,4.2,16.6,2.3,24.9
		c-2.2,9.6,1.9,8.2,7.8,5.8c47.8-19.4,87.3-49.6,118.6-90.5c3.1-4,4.3-7.5,1.8-12.4c-2.6-5-6.1-7-11.6-7
		C1134.9,976.1,1121.9,975.9,1108.9,975.9z M1154.3,658.8c-5.1-0.9-7.9,1.4-9.4,6.8c-7.2,25.9-14.7,51.8-22.2,77.6
		c-1.2,4.1-1.2,7.6,2.8,10.3c24,16,47.9,32.2,72.1,47.9c6.4,4.1,16.6-2,15.8-9.1c-5.5-47-21.7-89.9-48.9-128.7
		C1162,660.2,1159.1,658.2,1154.3,658.8z M616.9,794.9c3.3-6.1,2.3-11.5,3.1-16.4c4.7-29.7,12.5-58.4,25.7-85.5
		c4-8.2,2.8-13.2-3.8-19.2c-12.2-11.1-23.8-23.1-35.2-35.1c-4.5-4.7-7.4-4.5-11.8,0c-12.8,13.3-25.9,26.5-39.3,39.3
		c-5.2,4.9-5.2,8.2-0.5,13.6c20.1,22.8,36.3,48.2,49.5,75.5C608.9,775.9,612.5,784.9,616.9,794.9z M933.9,543.1
		c-22.5-0.5-44.6,2.3-66.4,7.7c-5.5,1.4-9.5,3.3-11.1,9.2c-1.8,6.4,3.5,7.7,6.9,10.2c20.9,14.8,42,29.3,62.8,44.4
		c5.8,4.2,10.2,3.6,15.6-0.3c20.9-14.9,42-29.4,62.9-44.1c3.4-2.4,7.6-4.2,6.5-9.7c-1.1-5.5-4.4-8-9.8-9.3
		C979.1,545.7,956.7,542.6,933.9,543.1z M881,925.8c31,19.2,59.8,40.1,86.5,63.9c9,8,17.7,16.2,26.6,24.3c3.4,3.2,6.2,4.4,8.9-1
		c7.7-15.7,15.6-31.4,23.4-47c1-2,2.3-4.5,0.4-6.4c-11-11-22.1-21.9-33.3-32.7c-1-0.9-3.1-1-4.6-1.1
		C952.8,925.8,916.9,925.8,881,925.8z M653.3,801.3c-0.1,1.3,0,2.6-0.2,3.9c-0.7,5-0.8,9.3,5.1,12.1c6.3,3,9-1.2,12.3-4.5
		c17.5-17.4,35-34.9,52.4-52.4c2.9-3,6.8-5.8,4.8-10.8c-7.9-19.9-15.4-40.1-24.3-59.6c-4.2-9.2-12.4-8.6-17.1,0.1
		C667.3,724.7,656.5,761.9,653.3,801.3z M670.4,648.2c0-0.1,0.8-1.9,1.9-3.5c13.1-18.2,27.4-35.4,43.8-50.7c3.5-3.2,2.6-5.1-0.8-7.4
		c-11.5-7.8-22.6-16.3-33-25.6c-4.2-3.8-7.2-2.3-10.7,1.2c-13.4,13.6-26.9,27.2-40.6,40.6c-3.6,3.6-4.7,6.3-0.5,10.4
		c11,10.6,21.6,21.5,32.4,32.2C664.4,646.7,665.7,648.3,670.4,648.2z"/>
	<path class="st1" d="M834.6,1058c-0.2,9.6-7.6,17.1-19.9,17.2c-10,0.1-13.7,3-13.4,13.4c0.3,11.8-7.5,19.6-17.3,19.8
		c-9.7,0.2-16.9-7.6-18.3-19.2c-0.5-4.5,2.5-11.2-3.9-12.7c-7.8-1.7-16.2-1.8-24.1,0.4c-2.4,0.7-2.4,3.6-2.5,5.9
		c-0.2,2.9,0,5.9-0.5,8.7c-1.6,10-8.7,16.7-17.3,16.9c-9,0.2-16.5-7-17.9-17.3c-0.3-2.2-0.4-4.6-0.3-6.8c0.5-6.3-2.4-9-8.6-8.6
		c-2.3,0.2-4.5,0-6.8,0c-13.5,0-13.5,0-15.4,13.8c-1.6,11.9-8.7,19.1-18.6,18.7c-9.9-0.3-17.4-8.2-16.7-20.1
		c0.6-11.1-4.2-13.6-13.7-12.5c-2.9,0.3-5.8,0.2-8.8,0.1c-5.6-0.3-8.5,2-8.5,7.9c0,3.2-0.5,6.5-1.2,9.6c-2,9.4-9,15.3-17.6,15
		c-8.6-0.3-15.4-7-16.7-16.2c-2.2-16.4-2.2-15.9-19.5-16.5c-9.9-0.4-13.2,2.7-12.7,12.6c0.6,12.4-7.2,20.4-17.4,20.1
		c-10-0.2-17.3-8-16.7-19.9c0.4-9.6-2.3-13.2-12.4-13c-13.5,0.2-21-7.2-20.9-18c0.1-10.6,7.5-17.8,20.4-17.3
		c10.6,0.5,13.4-3.3,12.9-13.3c-0.6-11.8,6.8-19.7,16.7-20c10.3-0.3,17.3,7.6,17.7,20c0.4,12.9,0.4,12.9,13.8,13c1.6,0,3.2,0,4.9,0
		c12.7,0,12.7,0,13.1-12.6c0.4-12,6.7-19.8,16.6-20.4c9.6-0.5,16.4,6.1,18.7,17.5c1,4.9-2.1,12.1,3.4,14.3c7.5,3,16,1.4,24.1,0.7
		c2.6-0.2,3.5-2.7,3.5-5.1c0.1-2.3,0.1-4.5,0.1-6.8c0.5-12.6,7.2-20.4,17.6-20.6c9.7-0.2,16.3,7.2,18.1,19.2
		c0.7,4.5-2.4,11.3,3.7,12.9c7.7,2.1,16.1,1.6,24.1,0c3.1-0.6,2.7-4,2.9-6.6c0.3-3.9,0.1-7.9,1-11.6c2.1-8.5,7.9-13.7,16.7-13.8
		c8.7-0.1,14.6,4.7,17,13.3c0.3,0.9,0.5,1.9,0.8,2.8c1.7,5.1-2.3,12.6,3.1,15.4c6.6,3.4,14.7,1,22.1,1.2c4.1,0.1,5.6-2.4,5.8-6.3
		c0.2-4.2,0.4-8.5,1.3-12.5c1.9-8.7,7.7-13.4,16.5-14c8-0.5,15.3,5.6,17.4,14.2c0.5,2.2,1,4.6,0.7,6.7c-1.2,9.3,2.6,12.5,12,12.2
		C826.5,1039.7,834.8,1047.6,834.6,1058z"/>
</g>
</svg>
