<?xml version="1.0" encoding="utf-8"?>
<!-- Generator: Adobe Illustrator 27.9.0, SVG Export Plug-In . SVG Version: 6.00 Build 0)  -->
<svg version="1.1" id="Layer_1" xmlns="http://www.w3.org/2000/svg" xmlns:xlink="http://www.w3.org/1999/xlink" x="0px" y="0px"
	 viewBox="0 0 1500 1500" style="enable-background:new 0 0 1500 1500;" xml:space="preserve">
<style type="text/css">
	.st0{fill:#AFC6D3;}
	.st1{fill:#1E3464;}
</style>
<g>
	<circle class="st0" cx="750" cy="750" r="733.3"/>
	<g>
		<g>
			<g>
				<path class="st1" d="M1144.9,512.7c-4.2-5.2-10.6-8.1-17.2-8.1H490.6l-21.1-109.1c-2-10.5-11.2-18.1-21.9-18.1h-75.3
					c-12.3,0-22.3,10-22.3,22.3c0,12.3,10,22.3,22.3,22.3h56.9l96,502.3c1.9,10.7,11.1,18.4,22,18.4h78.7
					c-42.3,7.7-74.5,44.7-74.5,89.2c0,50,40.7,90.6,90.6,90.6c50,0,90.6-40.7,90.6-90.6c0-44.5-32.2-81.5-74.4-89.2h289.5
					c-42.3,7.7-74.5,44.7-74.5,89.2c0,50,40.7,90.6,90.6,90.6c50,0,90.6-40.7,90.6-90.6c0-44.5-32.2-81.5-74.4-89.2h67.9
					c12.3,0,22.3-10,22.3-22.3c0-12.3-10-22.3-22.3-22.3H565.8l-6.8-38.9h507.2c10.6,0,19.8-7.5,21.9-18l61.6-310.2
					C1150.9,524.6,1149.2,517.8,1144.9,512.7z M1010,1031.9c0,25.4-20.7,46.1-46.1,46.1c-25.4,0-46.1-20.7-46.1-46.1
					s20.7-46.1,46.1-46.1C989.4,985.9,1010,1006.5,1010,1031.9z M688.1,1031.9c0,25.4-20.7,46.1-46,46.1
					c-25.4,0-46.1-20.7-46.1-46.1s20.7-46.1,46.1-46.1C667.4,985.9,688.1,1006.5,688.1,1031.9z M550.7,814.8l-30.2-156h84.1
					l25.6,156H550.7z M777.6,814.8H675.4l-25.6-156h127.8L777.6,814.8L777.6,814.8z M925.9,814.8H822.2v-156h126.2L925.9,814.8z
					 M1047.9,814.8H971l22.4-156h85.4L1047.9,814.8z M1087.6,614.2H511.8l-12.6-65.1h601.3L1087.6,614.2z"/>
			</g>
		</g>
	</g>
</g>
</svg>
