<?xml version="1.0" encoding="utf-8"?>
<!-- Generator: Adobe Illustrator 27.9.0, SVG Export Plug-In . SVG Version: 6.00 Build 0)  -->
<svg version="1.1" id="Layer_1" xmlns="http://www.w3.org/2000/svg" xmlns:xlink="http://www.w3.org/1999/xlink" x="0px" y="0px"
	 viewBox="0 0 1500 1500" style="enable-background:new 0 0 1500 1500;" xml:space="preserve">
<style type="text/css">
	.st0{fill:#AFC6D3;}
	.st1{fill:#1E3464;}
</style>
<circle class="st0" cx="750" cy="750" r="733.3"/>
<g>
	<path class="st1" d="M618.1,666.9c0-45.5-0.2-90.9,0-136.4c0.2-46.2,19.7-82.1,58.9-106.9c17.8-11.3,37.6-16.7,58.7-17.5
		c6.5-0.2,13-0.2,19.5,0c13.4,0.4,24.1,11.4,24,24.5c-0.1,12.9-11.1,23.8-24.5,23.9c-13,0.1-25.9-0.4-38.5,4
		c-28.9,9.9-48.5,36.4-49,66.8c-0.1,7.7,0.2,15.3-0.1,23c-0.2,5,2.2,5.7,6.4,5.7c44.3-0.1,88.6-0.1,132.8-0.1
		c12.2,0,24.3-0.1,36.5,0.1c4.2,0.1,5.5-1.5,5.4-5.6c-0.1-16.1-0.4-32.3,3.3-48.2c11.7-50.3,53.7-87.6,105-93.3
		c10-1.1,20-1,29.9-0.6c13.2,0.5,23.1,11.8,22.8,25c-0.3,12.8-10.8,23.2-24,23.3c-12.8,0.1-25.6-0.5-38.1,3.7
		c-29.8,9.9-49.9,36.7-50,68.2c-0.2,91.6-0.1,183.1-0.1,274.7c0,6,0.3,6.1,5.8,3.2c13-6.8,25.7-13.9,40.3-17
		c25.3-5.4,49.3-2.2,72.2,9.7c10.3,5.4,20.5,11.1,30.8,16.5c18.4,9.7,36.9,9.9,55.4,0.1c4.9-2.6,9.7-5.1,14.7-7.5
		c7.4-3.5,13.6,0.2,13.7,8.4c0.1,10.7,0,21.3,0.1,32c0.1,4.9-2.2,8.1-6.5,10.3c-32.9,16.6-65.9,16.7-98.8,0.2
		c-10.7-5.4-21-11.5-31.7-17c-17.3-8.9-34.8-9.3-52.3-0.7c-12,5.9-23.6,12.4-35.5,18.3c-32,15.8-64.1,15.7-96-0.2
		c-10.3-5.1-20.3-10.7-30.4-16.2c-18.8-10.2-37.8-10.7-56.8-0.9c-10.1,5.2-20,10.6-30.1,15.8c-33.4,17.3-67,17.8-100.6,0.6
		c-10.2-5.2-20.3-10.8-30.4-16.2c-19.4-10.3-38.5-9.6-57.7,0.9c-11.1,6.1-22.2,12.2-33.7,17.5c-30.5,14.1-61.1,13.8-91.6-0.4
		c-5.5-2.6-8-6.4-7.9-12.5c0.3-9.5,0-19,0.1-28.5c0.1-10.4,6.9-14.4,16-9.5c9.4,5,18.5,10.4,29.4,12.1c12,1.8,23.3,0.1,34-5.2
		c11.9-5.9,23.6-12.4,35.5-18.3c33.7-16.6,67-15.6,100.1,2c9.1,4.9,18.2,9.7,27.3,14.5c5.6,3,5.7,2.9,5.7-3.7
		C618.1,761.8,618.1,714.3,618.1,666.9z M757,689.9c28.1,0,56.3-0.1,84.4,0.1c4.9,0,6.7-1.3,6.6-6.5c-0.2-24.8-0.1-49.6-0.1-74.4
		c0-6.6-0.1-6.8-6.6-6.8c-55.9,0-111.9,0-167.8,0c-6.4,0-6.5,0.1-6.5,6.9c0,24.6,0,49.3,0,73.9c0,6.6,0.2,6.8,6.6,6.8
		C701.4,689.9,729.2,689.9,757,689.9z M757.4,738.3c-28.3,0-56.6,0-84.9,0c-3.6,0-5.6,0.7-5.6,4.9c0.1,22,0.1,43.9,0,65.9
		c0,3.8,1,4.9,4.7,2.9c8.9-4.8,18-9.4,26.9-14.2c23.6-12.5,48.3-16.1,74.5-10.4c14.6,3.2,27.3,10.4,40.2,17.3
		c9.3,4.9,18.1,10.7,28.2,13.8c6.1,1.8,6.5,1.5,6.5-5c0-22.8,0-45.6,0-68.4c0-6.7-0.1-6.7-6.6-6.7
		C813.4,738.3,785.4,738.3,757.4,738.3z"/>
	<path class="st1" d="M1129.9,1055.4c0,5.3-0.1,10.7,0,16c0.1,4.5-1.8,7.7-5.8,9.7c-32.2,16.6-64.8,17.3-97.4,1.4
		c-11.1-5.4-21.7-11.6-32.6-17.3c-18.2-9.5-36.6-10-55-0.5c-10.8,5.6-21.5,11.3-32.4,16.8c-32.9,16.6-65.8,16.7-98.7,0
		c-10.7-5.4-21.1-11.4-31.8-16.8c-17.7-9-35.5-9.1-53.2-0.2c-12.5,6.3-24.6,13.4-37.3,19.2c-34.3,15.7-67.8,13.2-100.5-5.3
		c-8.8-5-17.8-9.8-26.9-14.3c-16.9-8.4-34.1-8.3-51-0.1c-10.6,5.1-21,10.8-31.4,16.4c-31.3,16.6-63.1,17.9-95.7,4
		c-7.4-3.2-10.9-7.7-10.4-16c0.6-9,0.1-18,0.2-27c0.1-9.4,6.9-13.5,15.3-9.1c9.7,5,19,10.9,30.3,12.5c12.1,1.7,23.5-0.1,34.4-5.6
		c10-5,19.9-10.1,29.7-15.4c36.8-19.9,73.2-19,109.4,1.6c8.4,4.8,16.9,9.3,25.5,13.6c17.4,8.8,34.9,8.7,52.3,0.1
		c14.2-7,27.6-15.6,42.3-21.5c31.4-12.7,62.1-10.6,91.9,5.4c10.4,5.6,20.7,11.4,31.3,16.6c16.8,8.2,33.8,8,50.5-0.3
		c11.5-5.7,22.7-12,34.1-17.7c34.1-16.9,67.9-16.2,101.4,1.9c9.7,5.2,19.3,10.5,29.1,15.5c17,8.6,34.2,8.7,51.4,0.6
		c5.7-2.7,11.2-5.8,16.9-8.6c7.7-3.7,13.8,0.1,13.9,8.6C1130,1044.8,1129.9,1050.1,1129.9,1055.4z"/>
	<path class="st1" d="M1129.9,942.6c0,4.3-0.3,8.7,0.1,13c0.7,7-2.5,11.1-8.7,14c-30.8,14.5-61.7,15.3-92.5,0.8
		c-12-5.6-23.5-12.5-35.3-18.6c-18.9-9.8-37.7-9.2-56.4,0.8c-11.9,6.3-23.6,13.1-35.9,18.5c-32.8,14.6-65,12.7-96.5-4.4
		c-9.8-5.3-19.5-10.8-29.5-15.8c-16.7-8.3-33.7-8.3-50.5-0.3c-15.2,7.2-29.4,16.5-45,22.6c-30.6,12-60.6,9.7-89.7-5.6
		c-10.5-5.5-20.7-11.5-31.3-16.7c-16.9-8.3-34.1-8.4-51-0.1c-12.9,6.3-25.3,13.5-38.2,19.6c-30.5,14.3-61.1,13.8-91.6-0.4
		c-5.5-2.6-8.1-6.3-7.9-12.5c0.3-9.6,0-19.3,0.1-29c0.1-9.7,6.7-13.6,15.5-9.2c3.4,1.7,6.8,3.5,10.2,5.3
		c19.3,10.5,38.3,9.9,57.7-0.2c15.8-8.2,30.8-18.1,48-23.2c27.7-8.3,54.6-6.1,80.4,7.2c9.6,5,19.2,10,28.6,15.3
		c19.6,10.9,39.1,11.5,59,0.8c11-5.9,22-11.8,33.3-17.2c30.7-14.7,61.7-15,92.5-0.5c12,5.7,23.5,12.5,35.3,18.6
		c17.6,9.1,35.4,9.2,53.2,0.2c10.5-5.3,21-10.9,31.5-16.3c35.3-18.4,70.3-17.4,105,1.7c8.8,4.8,17.6,9.5,26.4,14.1
		c18.1,9.5,36.3,9.5,54.5,0.1c5-2.6,9.9-5.4,15.1-7.8c7.4-3.5,13.4,0.3,13.7,8.6c0,0.3,0,0.7,0,1
		C1129.9,932.3,1129.9,937.4,1129.9,942.6z"/>
</g>
</svg>
