<?xml version="1.0" encoding="utf-8"?>
<!-- Generator: Adobe Illustrator 27.9.0, SVG Export Plug-In . SVG Version: 6.00 Build 0)  -->
<svg version="1.1" id="Layer_1" xmlns="http://www.w3.org/2000/svg" xmlns:xlink="http://www.w3.org/1999/xlink" x="0px" y="0px"
	 viewBox="0 0 1500 1500" style="enable-background:new 0 0 1500 1500;" xml:space="preserve">
<style type="text/css">
	.st0{fill:#AFC6D3;}
	.st1{fill:#1E3464;}
</style>
<circle class="st0" cx="750" cy="750" r="733.3"/>
<g>
	<path class="st1" d="M650.7,587.9c102,0,204.1,0,306.1,0c19.7,0,31.2,8.4,31.3,23c0.1,14.9-10.7,22.8-31.1,22.8
		c-11.7,0-23.5,0.6-35.2-0.2c-9.4-0.6-11.7,3.2-11.5,11.9c0.5,18.6-0.2,37.1,0.3,55.7c0.2,8.8-2,13-11.9,13.1
		c-8.3,0.1-16.8,2.1-24.9,4.3c-7.2,2-9.4,0.2-9.3-7.1c0.3-22.1-0.3-44.3,0.3-66.4c0.2-9.1-2.9-11.6-11.7-11.6
		c-56.4,0.3-112.8,0.4-169.2,0c-9.7-0.1-12.2,3.3-11.9,12.4c0.6,18.5-0.2,37.1,0.3,55.7c0.3,9.1-2.3,13.1-12.1,12.4
		c-7.7-0.6-15.7-0.2-23.4,1c-8.1,1.4-10.7-1.4-10.6-9.1c0.2-20.5-0.2-41,0.2-61.6c0.1-7.9-2.4-10.8-10.6-10.8
		c-56.7,0.3-113.5,0.3-170.2,0c-8.9-0.1-11.1,3.4-10.9,11.6c0.4,20.2-0.2,40.4,0.2,60.6c0.2,8.9-3.1,11.9-11.7,9.7
		c-7.3-1.9-14.9-2.1-22.4-1.5c-9.7,0.7-12.2-3.5-12-12.6c0.5-19.2-0.1-38.4,0.3-57.6c0.2-7.8-2.6-10.3-10.2-10.1
		c-13.4,0.5-26.7,0.2-40.1,0.1c-16.1-0.1-27.4-9.6-27.4-22.8c0-13.7,10.7-23,27.2-23C442.7,587.9,546.7,587.9,650.7,587.9z"/>
	<path class="st1" d="M379.1,734.1c7.8,0,15.7,0.3,23.5-0.1c28.1-1.5,53.5,6.6,76.9,21.4c35.6,22.5,70.6,21.8,106.5-0.1
		c50.1-30.6,100.7-29.1,150.5,1.2c35,21.3,68.8,20.3,103.9-1c48.7-29.6,98.7-30.3,148-0.8c16.5,9.9,33.3,17,53.1,17.2
		c15.4,0.1,24.4,10.3,23.8,24c-0.6,13-10.3,21.2-25.3,21.5c-27,0.5-51.2-8.4-73.7-22.5c-34.9-21.8-69.5-20.9-103.9,0.8
		c-34.1,21.5-70.8,26.6-109.7,17.7c-15.8-3.6-29.6-11.7-43.3-19.8c-32.6-19.4-65.8-20.1-97.9,0c-37.9,23.7-77.7,30.3-120.6,17.8
		c-11-3.2-21.2-8.4-30.8-14.6c-18.9-12.1-39.1-18.7-61.9-17.3c-15.3,1-30.6,0.2-45.9,0.2c-2.6,0-5.2,0-7.8-0.1
		c-18.6-0.7-29.1-9.3-28.9-23.5c0.2-14.3,10.5-22.1,29.6-22.1C356.3,734.1,367.7,734.1,379.1,734.1z"/>
	<path class="st1" d="M1035,911.3c-25.2,1-49.6-7.9-72.5-22.2c-34.3-21.4-68.4-21.1-103.1-0.1c-50.5,30.5-101.5,31.1-152.3-0.1
		c-15.2-9.3-31.2-15.6-49.6-15.6c-15.3,0-25-10.4-24.7-23.4c0.3-13.7,10.5-21.7,26.9-21.9c26-0.4,49.3,8.1,70.9,21.7
		c34.5,21.6,69.1,22.1,104,0.8c51-31.1,102.1-30.9,153,0.3c33.8,20.7,67.6,20.8,101.3,0c23.2-14.4,47.8-23.7,75.5-22.7
		c13.7,0.5,23,8.3,23.9,20.7c0.9,12.9-7.3,24.1-21.2,24.3c-22.9,0.3-42.3,8.8-61.1,20.6C1085.1,906.8,1061.8,911.9,1035,911.3z"/>
</g>
</svg>
